<svg width="205" height="205" viewBox="0 0 205 205" fill="none" xmlns="http://www.w3.org/2000/svg">
<path fill-rule="evenodd" clip-rule="evenodd" d="M102.852 204.262C159.258 204.262 204.983 158.537 204.983 102.131C204.983 45.7257 159.258 0 102.852 0C46.4469 0 0.721191 45.7257 0.721191 102.131C0.721191 158.537 46.4469 204.262 102.852 204.262Z" fill="white"/>
<path fill-rule="evenodd" clip-rule="evenodd" d="M101.466 142.984C101.466 133.923 105.933 129.392 115.011 129.392H142.246V56.9023H115.011C105.933 56.9023 101.393 61.433 101.393 70.4942C101.393 61.433 96.8543 56.9023 87.776 56.9023H60.541V129.392H87.776C96.8543 129.392 101.466 133.923 101.466 142.984Z" stroke="#EDC034" stroke-width="2" stroke-linecap="round" stroke-linejoin="round"/>
<path d="M141.981 65.6572H151V138.147H123.942C114.923 138.147 108.158 142.678 108.158 151.739H94.6291C94.6291 142.678 87.8646 138.147 78.8452 138.147H51.7871V65.6572H60.8065" stroke="#274548" stroke-width="2" stroke-linecap="round" stroke-linejoin="round"/>
<path d="M101.394 70.0332V140.066" stroke="#EDC034" stroke-width="2" stroke-linecap="round" stroke-linejoin="round"/>
</svg>
