<svg width="975" height="334" viewBox="0 0 975 334" fill="none" xmlns="http://www.w3.org/2000/svg">
<path fill-rule="evenodd" clip-rule="evenodd" d="M284 113.501C284 115.986 281.986 118 279.499 118C277.014 118 275 115.986 275 113.501C275 111.014 277.014 109 279.499 109C281.986 109 284 111.014 284 113.501Z" fill="white"/>
<path fill-rule="evenodd" clip-rule="evenodd" d="M622 4.50128C622 6.9858 619.986 9 617.499 9C615.014 9 613 6.9858 613 4.50128C613 2.0142 615.014 0 617.499 0C619.986 0 622 2.0142 622 4.50128Z" fill="white"/>
<path fill-rule="evenodd" clip-rule="evenodd" d="M443 95.4986C443 98.5364 440.536 101 437.499 101C434.461 101 432 98.5364 432 95.4986C432 92.4608 434.461 90 437.499 90C440.536 90 443 92.4608 443 95.4986Z" fill="white"/>
<path fill-rule="evenodd" clip-rule="evenodd" d="M112 101.001C107.946 102.076 107.074 102.948 106 107C104.926 102.948 104.054 102.076 100 101.001C104.054 99.9244 104.926 99.0525 106 95C107.074 99.0525 107.946 99.9244 112 101.001Z" fill="white"/>
<path fill-rule="evenodd" clip-rule="evenodd" d="M79 283.001C74.9459 284.076 74.0741 284.948 73 289C71.9259 284.948 71.0541 284.076 67 283.001C71.0541 281.924 71.9259 281.052 73 277C74.0741 281.052 74.9459 281.924 79 283.001Z" fill="white"/>
<path fill-rule="evenodd" clip-rule="evenodd" d="M275 29.0012C270.946 30.0756 270.074 30.9475 269 35C267.926 30.9475 267.054 30.0756 263 29.0012C267.054 27.9244 267.926 27.0525 269 23C270.074 27.0525 270.946 27.9244 275 29.0012Z" fill="white"/>
<path fill-rule="evenodd" clip-rule="evenodd" d="M12 181.001C7.94588 182.076 7.0741 182.948 6 187C4.9259 182.948 4.05412 182.076 0 181.001C4.05412 179.924 4.9259 179.052 6 175C7.0741 179.052 7.94588 179.924 12 181.001Z" fill="white"/>
<path fill-rule="evenodd" clip-rule="evenodd" d="M444 203.001C439.946 204.076 439.074 204.948 438 209C436.926 204.948 436.054 204.076 432 203.001C436.054 201.924 436.926 201.052 438 197C439.074 201.052 439.946 201.924 444 203.001Z" fill="white"/>
<path fill-rule="evenodd" clip-rule="evenodd" d="M220 211.5C213.243 213.203 211.791 214.583 209.999 221C208.206 214.583 206.754 213.203 200 211.5C206.754 209.797 208.206 208.417 209.999 202C211.791 208.417 213.243 209.797 220 211.5Z" fill="white"/>
<g opacity="0.4">
<path fill-rule="evenodd" clip-rule="evenodd" d="M721.712 150.661C721.712 156.722 726.644 161.635 732.729 161.635H778.451C783.318 161.635 787.264 165.566 787.264 170.417C787.264 175.265 783.318 179.196 778.451 179.196H761.924C755.839 179.196 750.907 184.111 750.907 190.171V190.721C750.907 196.783 755.839 201.696 761.924 201.696H900.517C906.601 201.696 911.536 196.783 911.536 190.721V190.171C911.536 184.111 906.601 179.196 900.517 179.196H849.375C844.508 179.196 840.56 175.265 840.56 170.417C840.56 165.566 844.508 161.635 849.375 161.635H865.794C871.879 161.635 876.813 156.722 876.813 150.661C876.813 144.599 871.879 139.686 865.794 139.686H732.729C726.644 139.686 721.712 144.599 721.712 150.661Z" fill="#FBF6EE"/>
<path fill-rule="evenodd" clip-rule="evenodd" d="M424.06 75.1212C424.06 81.1826 428.992 86.098 435.076 86.098H480.799C485.666 86.098 489.612 90.0286 489.612 94.8773C489.612 99.726 485.666 103.659 480.799 103.659H464.272C458.187 103.659 453.255 108.572 453.255 114.633V115.182C453.255 121.243 458.187 126.156 464.272 126.156H602.867C608.951 126.156 613.883 121.243 613.883 115.182V114.633C613.883 108.572 608.951 103.659 602.867 103.659H551.724C546.854 103.659 542.909 99.726 542.909 94.8773C542.909 90.0286 546.854 86.098 551.724 86.098H568.143C574.228 86.098 579.162 81.1826 579.162 75.1212C579.162 69.0597 574.228 64.1465 568.143 64.1465H435.076C428.992 64.1465 424.06 69.0597 424.06 75.1212Z" fill="#FBF6EE"/>
<path fill-rule="evenodd" clip-rule="evenodd" d="M68 232.965C68 239.026 72.932 243.939 79.0167 243.939H124.739C129.608 243.939 133.554 247.87 133.554 252.721C133.554 257.57 129.608 261.5 124.739 261.5H108.214C102.129 261.5 97.1972 266.413 97.1972 272.475V273.025C97.1972 279.087 102.129 284 108.214 284H246.807C252.892 284 257.824 279.087 257.824 273.025V272.475C257.824 266.413 252.892 261.5 246.807 261.5H195.663C190.796 261.5 186.85 257.57 186.85 252.721C186.85 247.87 190.796 243.939 195.663 243.939H212.084C218.169 243.939 223.101 239.026 223.101 232.965C223.101 226.903 218.169 221.99 212.084 221.99H79.0167C72.932 221.99 68 226.903 68 232.965Z" fill="#FBF6EE"/>
<path fill-rule="evenodd" clip-rule="evenodd" d="M193.8 161.935C193.8 167.997 198.734 172.912 204.819 172.912H250.539C255.409 172.912 259.354 176.843 259.354 181.691C259.354 186.54 255.409 190.471 250.539 190.471H234.014C227.929 190.471 222.997 195.386 222.997 201.447V201.996C222.997 208.057 227.929 212.97 234.014 212.97H372.607C378.692 212.97 383.624 208.057 383.624 201.996V201.447C383.624 195.386 378.692 190.471 372.607 190.471H321.463C316.596 190.471 312.65 186.54 312.65 181.691C312.65 176.843 316.596 172.912 321.463 172.912H337.884C343.969 172.912 348.901 167.997 348.901 161.935C348.901 155.874 343.969 150.96 337.884 150.96H204.819C198.734 150.96 193.8 155.874 193.8 161.935Z" fill="#FBF6EE"/>
<path fill-rule="evenodd" clip-rule="evenodd" d="M923.033 250.176H875.328C869.271 250.176 864.361 245.129 864.361 238.903C864.361 232.676 869.271 227.627 875.328 227.627H923.033C929.09 227.627 934 232.676 934 238.903C934 245.129 929.09 250.176 923.033 250.176Z" fill="#FBF6EE"/>
<path fill-rule="evenodd" clip-rule="evenodd" d="M152.531 172.382H89.0534C83.0099 172.382 78.109 167.335 78.109 161.108C78.109 154.88 83.0099 149.833 89.0534 149.833H152.531C158.575 149.833 163.473 154.88 163.473 161.108C163.473 167.335 158.575 172.382 152.531 172.382Z" fill="#FBF6EE"/>
</g>
<path fill-rule="evenodd" clip-rule="evenodd" d="M828 165.723V331.279C828 332.23 827.242 333 826.307 333H807.695C806.76 333 806 332.23 806 331.279V165.723C806 164.77 806.76 164 807.695 164H826.307C827.242 164 828 164.77 828 165.723Z" fill="#274548"/>
<path fill-rule="evenodd" clip-rule="evenodd" d="M808.401 165.258L808.311 330.651L827.596 330.742L827.689 165.347L827.596 165.258H808.401ZM827.596 334H808.401C806.525 334 805 332.497 805 330.651V165.347C805 163.503 806.525 162 808.401 162H827.596C829.475 162 831 163.503 831 165.347V330.651C831 332.497 829.475 334 827.596 334Z" fill="#3A3A39"/>
<path fill-rule="evenodd" clip-rule="evenodd" d="M806 317H819V313H806V317Z" fill="#3A3A39"/>
<path fill-rule="evenodd" clip-rule="evenodd" d="M806 299H819V295H806V299Z" fill="#3A3A39"/>
<path fill-rule="evenodd" clip-rule="evenodd" d="M806 280H819V276H806V280Z" fill="#3A3A39"/>
<path fill-rule="evenodd" clip-rule="evenodd" d="M806 260H819V256H806V260Z" fill="#3A3A39"/>
<path fill-rule="evenodd" clip-rule="evenodd" d="M806 243H819V239H806V243Z" fill="#3A3A39"/>
<path fill-rule="evenodd" clip-rule="evenodd" d="M806 224H819V220H806V224Z" fill="#3A3A39"/>
<path fill-rule="evenodd" clip-rule="evenodd" d="M806 205H819V201H806V205Z" fill="#3A3A39"/>
<path fill-rule="evenodd" clip-rule="evenodd" d="M806 187H819V183H806V187Z" fill="#3A3A39"/>
<path fill-rule="evenodd" clip-rule="evenodd" d="M210 331C210 300.625 185.599 276 155.5 276C125.401 276 101 300.625 101 331H210Z" fill="#557173"/>
<path fill-rule="evenodd" clip-rule="evenodd" d="M102.312 331H99C99 300.122 124.845 275 156.611 275C162.188 275 167.703 275.775 173 277.301L172.059 280.385C167.068 278.949 161.87 278.219 156.611 278.219C126.671 278.219 102.312 301.897 102.312 331Z" fill="#3A3A39"/>
<path fill-rule="evenodd" clip-rule="evenodd" d="M202 331C202 305.595 181.405 285 156 285C130.595 285 110 305.595 110 331H202Z" fill="#E5E6E3"/>
<path fill-rule="evenodd" clip-rule="evenodd" d="M182 330C182 315.64 170.584 304 156.5 304C142.418 304 131 315.64 131 330H182Z" fill="#FFFFFE"/>
<path fill-rule="evenodd" clip-rule="evenodd" d="M160 329C160 326.238 157.538 324 154.5 324C151.464 324 149 326.238 149 329H160Z" fill="#3A3A39"/>
<path fill-rule="evenodd" clip-rule="evenodd" d="M112.226 329H109C109 303.085 130.429 282 156.766 282C161.979 282 167.105 282.821 172 284.44L170.97 287.45C166.408 285.939 161.629 285.175 156.766 285.175C132.207 285.175 112.226 304.835 112.226 329Z" fill="#3A3A39"/>
<path fill-rule="evenodd" clip-rule="evenodd" d="M158.868 292L155 291.963L155.132 283L159 283.039L158.868 292Z" fill="#3A3A39"/>
<path fill-rule="evenodd" clip-rule="evenodd" d="M189.633 311L188 308.318L196.365 304L198 306.684L189.633 311Z" fill="#3A3A39"/>
<path fill-rule="evenodd" clip-rule="evenodd" d="M123.281 311L115 306.582L116.719 304L125 308.418L123.281 311Z" fill="#3A3A39"/>
<path fill-rule="evenodd" clip-rule="evenodd" d="M137.575 298L134 290.574L136.425 289L140 296.426L137.575 298Z" fill="#3A3A39"/>
<path fill-rule="evenodd" clip-rule="evenodd" d="M156 326.707L177.093 307L178 307.891L158.334 329L156 326.707Z" fill="#3A3A39"/>
<path fill-rule="evenodd" clip-rule="evenodd" d="M155 276H159V266H155V276Z" fill="#3A3A39"/>
<path fill-rule="evenodd" clip-rule="evenodd" d="M165.279 271H146.721C145.772 271 145 270.219 145 269.256V261.742C145 260.781 145.772 260 146.721 260H165.279C166.231 260 167 260.781 167 261.742V269.256C167 270.219 166.231 271 165.279 271Z" fill="#EDC034"/>
<path fill-rule="evenodd" clip-rule="evenodd" d="M148.432 259.197L148.315 266.692L167.57 266.803L167.685 266.692V259.31L148.432 259.197ZM167.57 270H148.432C146.54 270 145 268.517 145 266.692V259.31C145 257.483 146.54 256 148.432 256H167.568C169.462 256 171 257.483 171 259.31V266.692C171 268.517 169.462 270 167.57 270Z" fill="#3A3A39"/>
<path fill-rule="evenodd" clip-rule="evenodd" d="M186.509 285L184 283.259L187.491 276L190 277.741L186.509 285Z" fill="#3A3A39"/>
<path fill-rule="evenodd" clip-rule="evenodd" d="M194.836 282.776L182.883 276.241C182.039 275.779 181.749 274.758 182.237 273.959L184.754 269.836C185.24 269.037 186.322 268.762 187.166 269.224L199.117 275.761C199.961 276.221 200.251 277.244 199.763 278.044L197.248 282.164C196.76 282.963 195.68 283.238 194.836 282.776Z" fill="#4DC0E0"/>
<path fill-rule="evenodd" clip-rule="evenodd" d="M184.904 270.294L182.266 274.67L194.096 281.702L194.252 281.659L196.732 277.324L184.904 270.294ZM194.145 285C193.562 285 192.986 284.847 192.465 284.543L180.681 277.672C179.075 276.738 178.522 274.657 179.45 273.031L181.93 268.696C182.86 267.075 184.926 266.519 186.53 267.453L198.316 274.324C199.094 274.777 199.651 275.51 199.883 276.39C200.118 277.265 199.996 278.182 199.545 278.967L197.065 283.302C196.614 284.088 195.888 284.65 195.021 284.884C194.731 284.961 194.438 285 194.145 285Z" fill="#3A3A39"/>
<path fill-rule="evenodd" clip-rule="evenodd" d="M123.493 285L120 277.741L122.509 276L126 283.259L123.493 285Z" fill="#3A3A39"/>
<path fill-rule="evenodd" clip-rule="evenodd" d="M119.165 282.776L131.118 276.241C131.963 275.779 132.251 274.757 131.762 273.958L129.247 269.835C128.759 269.036 127.68 268.763 126.835 269.223L114.882 275.76C114.037 276.22 113.749 277.244 114.238 278.043L116.753 282.166C117.241 282.963 118.32 283.238 119.165 282.776Z" fill="#EDC034"/>
<path fill-rule="evenodd" clip-rule="evenodd" d="M128.254 270.337L116.31 277.167L118.749 281.661L118.907 281.7L130.692 274.832L128.254 270.337ZM118.853 285C118.562 285 118.268 284.963 117.979 284.884C117.11 284.65 116.384 284.088 115.935 283.304L113.453 278.965C113.005 278.182 112.883 277.265 113.115 276.39C113.349 275.51 113.906 274.777 114.684 274.324L126.47 267.454C128.076 266.519 130.14 267.075 131.067 268.694L133.549 273.029C134.477 274.655 133.927 276.735 132.318 277.674L120.535 284.543C120.015 284.847 119.438 285 118.853 285Z" fill="#3A3A39"/>
<path fill-rule="evenodd" clip-rule="evenodd" d="M907 312.771L869.587 272L851.415 275.854L845 331L901.297 330.215L907 312.771Z" fill="#CFEBF0"/>
<path fill-rule="evenodd" clip-rule="evenodd" d="M863.21 290L869 272L851 276.655L863.21 290Z" fill="#ECCE65"/>
<path fill-rule="evenodd" clip-rule="evenodd" d="M877.345 302L883 287L865 290.308L877.345 302Z" fill="#587274"/>
<path fill-rule="evenodd" clip-rule="evenodd" d="M887.276 318L892 300L876 304.527L887.276 318Z" fill="#ECCE65"/>
<path fill-rule="evenodd" clip-rule="evenodd" d="M875.242 304L847 330L887 317.227L875.242 304Z" fill="#587274"/>
<path fill-rule="evenodd" clip-rule="evenodd" d="M851.272 277L850.973 277.26L845 330L863 289.483L851.272 277Z" fill="#587274"/>
<path fill-rule="evenodd" clip-rule="evenodd" d="M901 331.29L900.709 331.548L847 332L889.566 319L901 331.29Z" fill="#ECCE65"/>
<path fill-rule="evenodd" clip-rule="evenodd" d="M843 333L849.588 274.333L869.305 270L896.749 300.982L894.401 303.15L868.185 273.553L852.474 277.005L846.557 329.716L898.498 328.966L903.428 313.344L900.526 310.064L902.869 307.897L907 312.555L900.815 332.164L843 333Z" fill="#3A3A39"/>
<path fill-rule="evenodd" clip-rule="evenodd" d="M900.77 309L897 304.959L899.23 303L903 307.041L900.77 309Z" fill="#3A3A39"/>
<path fill-rule="evenodd" clip-rule="evenodd" d="M900.603 333L851 278.165L853.397 276L903 330.835L900.603 333Z" fill="#3A3A39"/>
<path fill-rule="evenodd" clip-rule="evenodd" d="M845.983 332L843 330.686L862.017 289L865 290.312L845.983 332Z" fill="#3A3A39"/>
<path fill-rule="evenodd" clip-rule="evenodd" d="M846.031 333L845 329.86L888.969 315L890 318.14L846.031 333Z" fill="#3A3A39"/>
<path fill-rule="evenodd" clip-rule="evenodd" d="M847.189 331L845 328.599L875.813 301L878 303.399L847.189 331Z" fill="#3A3A39"/>
<path fill-rule="evenodd" clip-rule="evenodd" d="M865.165 291L862 289.99L867.837 272L871 273.01L865.165 291Z" fill="#3A3A39"/>
<path fill-rule="evenodd" clip-rule="evenodd" d="M878.163 305L875 303.99L880.835 286L884 287.01L878.163 305Z" fill="#3A3A39"/>
<path fill-rule="evenodd" clip-rule="evenodd" d="M890.163 319L887 317.986L892.837 300L896 301.014L890.163 319Z" fill="#3A3A39"/>
<path fill-rule="evenodd" clip-rule="evenodd" d="M887.685 318L887 315.309L905.313 312L906 314.689L887.685 318Z" fill="#3A3A39"/>
<path fill-rule="evenodd" clip-rule="evenodd" d="M876.687 304L876 301.311L894.315 298L895 300.689L876.687 304Z" fill="#3A3A39"/>
<path fill-rule="evenodd" clip-rule="evenodd" d="M864.685 291L864 288.31L882.315 285L883 287.69L864.685 291Z" fill="#3A3A39"/>
<path fill-rule="evenodd" clip-rule="evenodd" d="M794 331.998V180.281C794 175.708 790.692 172 786.61 172H677.392C673.31 172 670 175.708 670 180.281V332L794 331.998Z" fill="#FFFFFE"/>
<path fill-rule="evenodd" clip-rule="evenodd" d="M670 191V178.165C670 174.76 672.783 172 676.216 172H787.786C791.217 172 794 174.76 794 178.165V191H670Z" fill="#CDCECA"/>
<path fill-rule="evenodd" clip-rule="evenodd" d="M794 333H790.799V178.782C790.799 176.266 788.765 174.22 786.266 174.22H679V171H786.266C790.53 171 794 174.49 794 178.782V333Z" fill="#3A3A39"/>
<path fill-rule="evenodd" clip-rule="evenodd" d="M677 193H792V189H677V193Z" fill="#3A3A39"/>
<path fill-rule="evenodd" clip-rule="evenodd" d="M684 185H688V181H684V185Z" fill="#3A3A39"/>
<path fill-rule="evenodd" clip-rule="evenodd" d="M692 185H696V181H692V185Z" fill="#3A3A39"/>
<path fill-rule="evenodd" clip-rule="evenodd" d="M701 185H705V181H701V185Z" fill="#3A3A39"/>
<path fill-rule="evenodd" clip-rule="evenodd" d="M686 240H777V204H686V240Z" fill="#274548"/>
<path fill-rule="evenodd" clip-rule="evenodd" d="M686 298H715V262H686V298Z" fill="#EDC034"/>
<path fill-rule="evenodd" clip-rule="evenodd" d="M718 298H747V262H718V298Z" fill="#9FE2DD"/>
<path fill-rule="evenodd" clip-rule="evenodd" d="M749 298H778V262H749V298Z" fill="#EDC034"/>
<path fill-rule="evenodd" clip-rule="evenodd" d="M713 254H752V250H713V254Z" fill="#3A3A39"/>
<path fill-rule="evenodd" clip-rule="evenodd" d="M779 332V329.208C779 326.493 776.778 324.283 774.028 324.283L766.305 324.253C765.389 320.278 763.81 316.56 761.68 313.226L767.148 307.813C769.107 305.885 769.117 302.75 767.163 300.822L763.073 296.769C761.124 294.843 757.961 294.828 756.011 296.754L750.533 302.17C747.167 300.058 743.413 298.497 739.411 297.597V289.948C739.411 287.218 737.165 285 734.401 285H728.623C725.858 285 723.621 287.218 723.621 289.948V297.597C719.673 298.475 715.988 300.02 712.653 302.061L707.218 296.633C705.272 294.698 702.104 294.66 700.149 296.601L696.033 300.623C694.085 302.534 694.059 305.678 695.999 307.613L701.432 313.058C699.29 316.377 697.691 320.092 696.768 324.055L689.045 324.023C686.28 324 684.039 326.218 684.039 328.963L684 332H715.652C715.652 323.336 722.751 316.332 731.517 316.332C740.271 316.332 747.365 323.336 747.365 332H779Z" fill="#274548"/>
<path fill-rule="evenodd" clip-rule="evenodd" d="M748.517 331H745.3C745.3 323.176 738.947 316.813 731.135 316.813C723.315 316.813 716.954 323.176 716.954 331H713.737C713.737 321.398 721.544 313.587 731.135 313.587C740.72 313.587 748.517 321.398 748.517 331ZM780 331H776.783V328.185C776.783 326.335 775.286 324.832 773.446 324.832L764.474 324.798L764.189 323.548C763.331 319.763 761.851 316.194 759.796 312.931L759.11 311.843L765.461 305.473C766.104 304.83 766.458 303.981 766.458 303.077C766.458 302.178 766.11 301.338 765.478 300.705L761.403 296.619C760.09 295.299 757.96 295.29 756.648 296.606L750.286 302.976L749.199 302.284C745.958 300.224 742.402 298.746 738.634 297.884L737.381 297.6V288.6C737.381 286.74 735.865 285.226 734.003 285.226H728.255C726.398 285.226 724.885 286.74 724.885 288.6V297.602L723.631 297.884C719.987 298.708 716.48 300.153 713.207 302.183L712.12 302.86L705.81 296.475C705.166 295.828 704.311 295.471 703.403 295.471C702.513 295.471 701.681 295.819 701.055 296.445L696.952 300.51C696.317 301.14 695.963 301.987 695.961 302.892C695.957 303.794 696.3 304.641 696.928 305.275L703.238 311.684L702.548 312.77C700.474 316.024 698.983 319.585 698.119 323.351L697.831 324.609L691 324.572L691.017 321.346L695.294 321.37C696.162 318.123 697.456 315.026 699.161 312.133L694.644 307.546C693.411 306.301 692.735 304.643 692.744 302.877C692.75 301.11 693.441 299.456 694.689 298.217L698.783 294.161C700.01 292.929 701.651 292.245 703.403 292.245H703.405C705.175 292.245 706.837 292.942 708.09 294.202L712.617 298.781C715.496 297.125 718.53 295.873 721.668 295.045V288.6C721.668 284.961 724.624 282 728.255 282H734.003C737.638 282 740.598 284.961 740.598 288.6V295.047C743.845 295.908 746.936 297.194 749.816 298.884L754.374 294.323C756.941 291.755 761.113 291.766 763.678 294.338L767.749 298.422C768.993 299.665 769.675 301.318 769.675 303.08C769.675 304.847 768.984 306.508 767.734 307.757L763.187 312.314C764.877 315.213 766.162 318.32 767.022 321.581L773.452 321.606C777.06 321.606 780 324.557 780 328.185V331Z" fill="#3A3A39"/>
<path fill-rule="evenodd" clip-rule="evenodd" d="M671 265H418V125.613C418 118.648 423.592 113 430.488 113H658.512C665.408 113 671 118.648 671 125.613V265Z" fill="#676867"/>
<path fill-rule="evenodd" clip-rule="evenodd" d="M673 198H669.782V124.715C669.782 118.389 664.672 113.242 658.393 113.242H462V110H658.393C666.446 110 673 116.602 673 124.715V198Z" fill="#3A3A39"/>
<path fill-rule="evenodd" clip-rule="evenodd" d="M451 114H456V110H451V114Z" fill="#3A3A39"/>
<path fill-rule="evenodd" clip-rule="evenodd" d="M419.142 161H416V124.798C416 116.639 422.399 110 430.264 110H446V113.26H430.264C424.131 113.26 419.142 118.437 419.142 124.798V161Z" fill="#3A3A39"/>
<path fill-rule="evenodd" clip-rule="evenodd" d="M430 248H657V127H430V248Z" fill="#FFFFFE"/>
<path fill-rule="evenodd" clip-rule="evenodd" d="M507 332H585V287H507V332Z" fill="#FFFFFE"/>
<path fill-rule="evenodd" clip-rule="evenodd" d="M507 309H585V287H507V309Z" fill="#CDCECA"/>
<path fill-rule="evenodd" clip-rule="evenodd" d="M588 332H584.689V292.241H509.311V332H506V289H588V332Z" fill="#3A3A39"/>
<path fill-rule="evenodd" clip-rule="evenodd" d="M671 257H418V286.746C418 289.096 419.916 291 422.277 291H666.723C669.086 291 671 289.096 671 286.746V257Z" fill="#FFFFFE"/>
<path fill-rule="evenodd" clip-rule="evenodd" d="M497 295H606V291H497V295Z" fill="#3A3A39"/>
<path fill-rule="evenodd" clip-rule="evenodd" d="M497 260H606V256H497V260Z" fill="#3A3A39"/>
<path fill-rule="evenodd" clip-rule="evenodd" d="M448 178H643V135H448V178Z" fill="#274548"/>
<path fill-rule="evenodd" clip-rule="evenodd" d="M448 238H500V183H448V238Z" fill="#4DC0E0"/>
<path fill-rule="evenodd" clip-rule="evenodd" d="M519 238H571V183H519V238Z" fill="#E5E6E3"/>
<path fill-rule="evenodd" clip-rule="evenodd" d="M592 238H644V183H592V238Z" fill="#EDC034"/>
<path fill-rule="evenodd" clip-rule="evenodd" d="M491 334H598V330H491V334Z" fill="#3A3A39"/>
<path fill-rule="evenodd" clip-rule="evenodd" d="M606.389 295H604H604.215V292H667H606.389V295Z" fill="#B6B5B1"/>
<path fill-rule="evenodd" clip-rule="evenodd" d="M666.61 257H604.214V255.392H604V245.586H658.416V201H672H666.61V257Z" fill="#504F4F"/>
<path fill-rule="evenodd" clip-rule="evenodd" d="M658 246H604V238.491H642.708V201H658V246Z" fill="#B6B5B1"/>
<path fill-rule="evenodd" clip-rule="evenodd" d="M667 291H604.215V289.406H604V258.596H604.215V257H667V291Z" fill="#B6B5B1"/>
<path fill-rule="evenodd" clip-rule="evenodd" d="M604 295H604.198V291H604V295Z" fill="#313130"/>
<path fill-rule="evenodd" clip-rule="evenodd" d="M604 260H604.198V256H604V260Z" fill="#313130"/>
<path fill-rule="evenodd" clip-rule="evenodd" d="M643 238H604V209.583C604 204.849 607.895 201 612.683 201H643V238Z" fill="#576BB8"/>
<path fill-rule="evenodd" clip-rule="evenodd" d="M687 331H680.093L680.097 330.659H666V292H668.124V330.659H682.221L682.217 331H687Z" fill="#B6B5B1"/>
<path fill-rule="evenodd" clip-rule="evenodd" d="M670 331V292.058H671.054C673.408 292.058 675.314 290.123 675.314 287.735V201.041L674.92 201H683.439C686.024 201 688.345 202.17 689.917 204.015H686.365V239.833H692V262.574H686.373V298.391H692V321.64L691.255 321.635L691.246 323.264L689.116 323.255C689.101 323.255 689.089 323.255 689.074 323.255C686.361 323.255 684.169 325.496 684.169 328.264L684.135 331H670Z" fill="#B6B5B1"/>
<path fill-rule="evenodd" clip-rule="evenodd" d="M691 240H686V204H689.152C690.303 205.532 691 207.528 691 209.708V240Z" fill="#567273"/>
<path fill-rule="evenodd" clip-rule="evenodd" d="M686 298H691V262H686V298Z" fill="#B1E7E3"/>
<path fill-rule="evenodd" clip-rule="evenodd" d="M688.267 330H684L684.034 327.335C684.034 324.939 685.984 323 688.398 323C688.411 323 688.423 323 688.436 323L690.331 323.007L690.323 324.406L691 324.409C690.958 326.657 689.891 328.645 688.267 330Z" fill="#567273"/>
<path fill-rule="evenodd" clip-rule="evenodd" d="M691.714 325L691 324.995L691.016 321L691.716 321.005V324.806C691.716 324.87 691.716 324.936 691.714 325Z" fill="#313130"/>
<path fill-rule="evenodd" clip-rule="evenodd" d="M669 292.128H666H667.485C668.01 292.128 668.517 292.084 669 292V292.128Z" fill="#868582"/>
<path fill-rule="evenodd" clip-rule="evenodd" d="M670.992 292H670V291.862C671.723 291.378 672.996 289.69 672.996 287.68V201H674.629L675 201.041V287.68C675 290.066 673.206 292 670.992 292Z" fill="#868582"/>
<path fill-rule="evenodd" clip-rule="evenodd" d="M666 257H671V201H666V257Z" fill="#403F3E"/>
<path fill-rule="evenodd" clip-rule="evenodd" d="M666.992 291H666V257H671V286.746C671 288.725 669.727 290.387 668.004 290.864C667.681 290.953 667.343 291 666.992 291Z" fill="#868582"/>
<path fill-rule="evenodd" clip-rule="evenodd" d="M677.051 332H616.949C613.11 332 610 328.816 610 324.885V209.115C610 205.184 613.11 202 616.949 202H677.051C680.888 202 684 205.184 684 209.115V324.885C684 328.816 680.888 332 677.051 332Z" fill="#FFFFFE"/>
<path fill-rule="evenodd" clip-rule="evenodd" d="M616.635 204.258C613.65 204.258 611.222 206.713 611.222 209.732V325.268C611.222 328.287 613.65 330.742 616.635 330.742H677.365C680.35 330.742 682.778 328.287 682.778 325.268V209.732C682.778 206.713 680.35 204.258 677.365 204.258H616.635ZM677.365 334H616.635C611.873 334 608 330.084 608 325.268V209.732C608 204.916 611.873 201 616.635 201H677.365C682.127 201 686 204.916 686 209.732V325.268C686 330.084 682.127 334 677.365 334Z" fill="#3A3A39"/>
<path fill-rule="evenodd" clip-rule="evenodd" d="M617 311H679V223H617V311Z" fill="#EDC034"/>
<path fill-rule="evenodd" clip-rule="evenodd" d="M637 217H656V213H637V217Z" fill="#3A3A39"/>
<path fill-rule="evenodd" clip-rule="evenodd" d="M647.999 316.226C645.919 316.226 644.226 317.918 644.226 320C644.226 322.082 645.919 323.774 647.999 323.774C650.081 323.774 651.774 322.082 651.774 320C651.774 317.918 650.081 316.226 647.999 316.226ZM647.999 327C644.14 327 641 323.86 641 320C641 316.14 644.14 313 647.999 313C651.86 313 655 316.14 655 320C655 323.86 651.86 327 647.999 327Z" fill="#3A3A39"/>
<path fill-rule="evenodd" clip-rule="evenodd" d="M624 253H676V231H624V253Z" fill="#274548"/>
<path fill-rule="evenodd" clip-rule="evenodd" d="M622 305H644V260H622V305Z" fill="#9FE2DD"/>
<path opacity="0.6" fill-rule="evenodd" clip-rule="evenodd" d="M653 305H675V260H653V305Z" fill="#FBF6EE"/>
<path fill-rule="evenodd" clip-rule="evenodd" d="M172 280L172.426 277L172 280Z" fill="#ACA9A8"/>
<path fill-rule="evenodd" clip-rule="evenodd" d="M176 289C174.245 287.98 172.417 287.102 170.524 286.38L170.97 284.876C170.318 284.628 169.661 284.397 169 284.188V278.961C169.607 279.134 170.21 279.321 170.809 279.522L171.207 278L171.203 278.013C172.843 278.563 174.443 279.21 176 279.949V289Z" fill="#7087E3"/>
<path fill-rule="evenodd" clip-rule="evenodd" d="M171.778 281C170.858 280.736 169.932 280.492 169 280.264V276C170.339 276.306 171.678 276.628 173 277.008L172.389 279.003L171.778 281Z" fill="#313130"/>
<path fill-rule="evenodd" clip-rule="evenodd" d="M176 317C175.145 315.497 174.155 314.108 173.048 312.852L176 309.17V317ZM171.959 311.697C171.037 310.783 170.047 309.957 169 309.229V288.133C169.36 288.258 169.719 288.391 170.075 288.529L170.524 287C172.417 287.733 174.245 288.626 176 289.662V307.313L171.959 311.697Z" fill="#A4A4A2"/>
<path fill-rule="evenodd" clip-rule="evenodd" d="M176 330H169V316.864L173.048 311.704C174.155 312.988 175.145 314.409 176 315.945V330ZM169 313.808V308C170.047 308.745 171.037 309.589 171.959 310.524L169 313.808Z" fill="#B6B5B1"/>
<path fill-rule="evenodd" clip-rule="evenodd" d="M170.638 289C170.095 288.853 169.549 288.712 169 288.579V285C170.007 285.227 171.008 285.476 172 285.744L170.638 289Z" fill="#313130"/>
<path fill-rule="evenodd" clip-rule="evenodd" d="M169 318V314.894L176 307V308.931L169 318Z" fill="#313130"/>
<path fill-rule="evenodd" clip-rule="evenodd" d="M277 332V219.699C277 215.447 274.358 212 271.099 212H183.901C180.642 212 178 215.447 178 219.699V332H277Z" fill="#FFFFFE"/>
<path fill-rule="evenodd" clip-rule="evenodd" d="M178.172 332H175V217.523C175 213.924 177.866 211 181.387 211H186V214.24H181.387C179.613 214.24 178.172 215.713 178.172 217.523V332Z" fill="#3A3A39"/>
<path fill-rule="evenodd" clip-rule="evenodd" d="M195 215H262V211H195V215Z" fill="#3A3A39"/>
<path fill-rule="evenodd" clip-rule="evenodd" d="M189 215H194V211H189V215Z" fill="#3A3A39"/>
<path fill-rule="evenodd" clip-rule="evenodd" d="M178 230H263V226H178V230Z" fill="#3A3A39"/>
<path fill-rule="evenodd" clip-rule="evenodd" d="M189 224H194V220H189V224Z" fill="#3A3A39"/>
<path fill-rule="evenodd" clip-rule="evenodd" d="M198 224H203V220H198V224Z" fill="#3A3A39"/>
<path fill-rule="evenodd" clip-rule="evenodd" d="M207 224H212V220H207V224Z" fill="#3A3A39"/>
<path fill-rule="evenodd" clip-rule="evenodd" d="M189 332H262V237H189V332Z" fill="#274548"/>
<path fill-rule="evenodd" clip-rule="evenodd" d="M188.775 305.606L184.394 301.225C183.869 300.699 183.869 299.848 184.394 299.323L223.324 260.394C223.849 259.869 224.701 259.869 225.226 260.394L229.608 264.775C230.131 265.301 230.131 266.152 229.608 266.677L190.675 305.606C190.152 306.131 189.299 306.131 188.775 305.606Z" fill="#676867"/>
<path fill-rule="evenodd" clip-rule="evenodd" d="M185.639 302.605L184.395 301.361C183.868 300.834 183.868 299.98 184.395 299.453L223.453 260.395C223.98 259.868 224.834 259.868 225.361 260.395L226.605 261.639C227.132 262.166 227.132 263.02 226.605 263.547L187.547 302.605C187.02 303.132 186.164 303.132 185.639 302.605Z" fill="#8B8E8D"/>
<path fill-rule="evenodd" clip-rule="evenodd" d="M231.564 264.962L227.039 260.434C226.46 259.855 225.518 259.855 224.937 260.434L214 271.372L220.629 278L231.564 267.064C232.145 266.483 232.145 265.541 231.564 264.962Z" fill="#FFFFFE"/>
<path fill-rule="evenodd" clip-rule="evenodd" d="M185.447 301.696L189.6 305.686L229.556 267.276L225.402 263.285L185.447 301.696ZM189.6 309C188.782 309 188.013 308.694 187.438 308.139L182.898 303.776C182.318 303.219 182 302.48 182 301.696C182 300.909 182.32 300.168 182.898 299.615L223.238 260.832C224.396 259.719 226.413 259.726 227.567 260.832L232.104 265.195C232.682 265.753 233 266.492 233 267.276C233 268.062 232.682 268.803 232.104 269.357L191.764 308.139C191.187 308.697 190.418 309 189.6 309Z" fill="#3A3A39"/>
<path fill-rule="evenodd" clip-rule="evenodd" d="M224 253H228V243H224V253Z" fill="#3A3A39"/>
<path fill-rule="evenodd" clip-rule="evenodd" d="M235.504 256L233 254.434L237.494 246L240 247.566L235.504 256Z" fill="#3A3A39"/>
<path fill-rule="evenodd" clip-rule="evenodd" d="M237.567 259L236 256.496L244.433 252L246 254.504L237.567 259Z" fill="#3A3A39"/>
<path fill-rule="evenodd" clip-rule="evenodd" d="M237.002 269L237 265.005L246.998 265L247 268.995L237.002 269Z" fill="#3A3A39"/>
<path fill-rule="evenodd" clip-rule="evenodd" d="M244.434 277L236 272.506L237.564 270L246 274.494L244.434 277Z" fill="#3A3A39"/>
<path fill-rule="evenodd" clip-rule="evenodd" d="M237.496 286L233 277.567L235.502 276L240 284.433L237.496 286Z" fill="#3A3A39"/>
<path fill-rule="evenodd" clip-rule="evenodd" d="M224.011 288L224 278.004L227.989 278L228 287.996L224.011 288Z" fill="#3A3A39"/>
<path fill-rule="evenodd" clip-rule="evenodd" d="M205.004 269L205 265.016L214.996 265L215 268.984L205.004 269Z" fill="#3A3A39"/>
<path fill-rule="evenodd" clip-rule="evenodd" d="M216.438 259L208 254.511L209.562 252L218 256.491L216.438 259Z" fill="#3A3A39"/>
<path fill-rule="evenodd" clip-rule="evenodd" d="M218.5 256L214 247.571L216.5 246L221 254.429L218.5 256Z" fill="#3A3A39"/>
<path fill-rule="evenodd" clip-rule="evenodd" d="M496.767 257H418V165H431.868V245.541H500V255.386H496.767V257Z" fill="#504F4F"/>
<path fill-rule="evenodd" clip-rule="evenodd" d="M498 247H430V165H439.032V166.645H446.092V177.155H498V183.822H446.092V239.674H498V247Z" fill="#B6B5B1"/>
<path fill-rule="evenodd" clip-rule="evenodd" d="M496.767 291H422.32C419.935 291 418 289.096 418 286.746V257H496.767V258.596H500V289.406H496.767V291Z" fill="#B6B5B1"/>
<path fill-rule="evenodd" clip-rule="evenodd" d="M497 295H501V291H497V295Z" fill="#313130"/>
<path fill-rule="evenodd" clip-rule="evenodd" d="M497 260H501V256H497V260Z" fill="#313130"/>
<path fill-rule="evenodd" clip-rule="evenodd" d="M500 178H448V166.76H450.544V165H465.554V166.76H471.884V165H492.982C496.851 165 500 168.416 500 172.618V178Z" fill="#547173"/>
<path fill-rule="evenodd" clip-rule="evenodd" d="M448 238H500V183H448V238Z" fill="#E9CD64"/>
<path fill-rule="evenodd" clip-rule="evenodd" d="M496 334H491V330V334H496Z" fill="#CFCDC8"/>
<path fill-rule="evenodd" clip-rule="evenodd" d="M494.863 334H491V330H502C500.044 332.179 497.575 333.584 494.863 334Z" fill="#343433"/>
<path fill-rule="evenodd" clip-rule="evenodd" d="M266 332H275V216.826C275 214.438 273.351 212.449 271.166 212C273.353 212.449 275 214.438 275 216.826V332H266Z" fill="#B6B5B1"/>
<path fill-rule="evenodd" clip-rule="evenodd" d="M272 212.086C271.593 212.03 271.172 212 270.742 212H269H270.742C271.172 212 271.593 212.03 272 212.086Z" fill="#ACA9A8"/>
<path fill-rule="evenodd" clip-rule="evenodd" d="M265.824 332C264.307 331.119 263 329.91 262 328.456V312.557H268.818V228H275V332H265.824Z" fill="#B6B5B1"/>
<path fill-rule="evenodd" clip-rule="evenodd" d="M275 227H269V212H270.281C270.597 212 270.906 212.032 271.206 212.092C273.368 212.536 275 214.504 275 216.866V227Z" fill="#5D5E5D"/>
<path fill-rule="evenodd" clip-rule="evenodd" d="M262 327C260.963 325.665 260.24 324.111 259.925 322.413L258 312H262V327Z" fill="#7087E3"/>
<path fill-rule="evenodd" clip-rule="evenodd" d="M490.834 323H277.166C275.975 323 275 322.036 275 320.857V170.143C275 168.964 275.975 168 277.166 168H490.834C492.025 168 493 168.964 493 170.143V320.857C493 322.036 492.025 323 490.834 323Z" fill="#676867"/>
<path fill-rule="evenodd" clip-rule="evenodd" d="M444 169H459V165H444V169Z" fill="#3A3A39"/>
<path fill-rule="evenodd" clip-rule="evenodd" d="M486.968 324H280.034C276.157 324 273 320.86 273 317V172C273 168.14 276.157 165 280.034 165H434.812V168.23H280.034C277.946 168.23 276.246 169.923 276.246 172V317C276.246 319.08 277.946 320.77 280.034 320.77H486.968C489.056 320.77 490.754 319.08 490.754 317V172C490.754 169.923 489.056 168.23 486.968 168.23H465.829V165H486.968C490.845 165 494 168.14 494 172V317C494 320.86 490.845 324 486.968 324Z" fill="#3A3A39"/>
<path fill-rule="evenodd" clip-rule="evenodd" d="M284 307H479V181H284V307Z" fill="#515251"/>
<path fill-rule="evenodd" clip-rule="evenodd" d="M486.062 333H274.727C269.652 333 265.326 329.297 264.504 324.253L263 315H360.95L364.698 320.422H391.762L395.813 315H499L497.69 323.047C496.756 328.788 491.834 333 486.062 333Z" fill="#FFFFFE"/>
<path fill-rule="evenodd" clip-rule="evenodd" d="M266.82 315.213L268.025 322.489C268.723 326.718 272.371 329.787 276.697 329.787H489.086C494.119 329.787 498.361 326.216 499.174 321.298L500.182 315.213H399.197L395.126 320.57H366.27L362.504 315.213H266.82ZM489.086 333H276.697C270.775 333 265.781 328.797 264.823 323.008L263 312H364.196L367.963 317.357H393.509L397.58 312H504L502.374 321.817C501.302 328.298 495.713 333 489.086 333Z" fill="#3A3A39"/>
<path fill-rule="evenodd" clip-rule="evenodd" d="M312 197H333V194H312V197Z" fill="#547173"/>
<path fill-rule="evenodd" clip-rule="evenodd" d="M324 205H338V202H324V205Z" fill="#FFFFFE"/>
<path fill-rule="evenodd" clip-rule="evenodd" d="M370 205H470V202H370V205Z" fill="#FFFFFE"/>
<path d="M348 205H364V202H348V205Z" fill="#EDC034"/>
<path d="M348 205H364V202H348V205Z" stroke="#EDC034"/>
<path fill-rule="evenodd" clip-rule="evenodd" d="M328 214H358V211H328V214Z" fill="#547173"/>
<path fill-rule="evenodd" clip-rule="evenodd" d="M341 224H377V221H341V224Z" fill="#FFFFFE"/>
<path d="M312 236H351V233H312V236Z" fill="#EDC034"/>
<path d="M312 236H351V233H312V236Z" stroke="#EDC034"/>
<path fill-rule="evenodd" clip-rule="evenodd" d="M358 236H388V233H358V236Z" fill="#FFFFFE"/>
<path fill-rule="evenodd" clip-rule="evenodd" d="M324 246H377V243H324V246Z" fill="#FFFFFE"/>
<path fill-rule="evenodd" clip-rule="evenodd" d="M399 246H435V243H399V246Z" fill="#FFFFFE"/>
<path fill-rule="evenodd" clip-rule="evenodd" d="M379 246H395V243H379V246Z" fill="#547173"/>
<path fill-rule="evenodd" clip-rule="evenodd" d="M342 255H388V252H342V255Z" fill="#FFFFFE"/>
<path d="M328 255H338V252H328V255Z" fill="#EDC034"/>
<path d="M328 255H338V252H328V255Z" stroke="#EDC034"/>
<path fill-rule="evenodd" clip-rule="evenodd" d="M312 263H345V260H312V263Z" fill="#FFFFFE"/>
<path fill-rule="evenodd" clip-rule="evenodd" d="M348 263H359V260H348V263Z" fill="#547173"/>
<path fill-rule="evenodd" clip-rule="evenodd" d="M361 263H413V260H361V263Z" fill="#FFFFFE"/>
<path fill-rule="evenodd" clip-rule="evenodd" d="M418 263H465V260H418V263Z" fill="#FFFFFE"/>
<path fill-rule="evenodd" clip-rule="evenodd" d="M324 274H340V271H324V274Z" fill="#FFFFFE"/>
<path d="M345 274H384V271H345V274Z" fill="#EDC034"/>
<path d="M345 274H384V271H345V274Z" stroke="#EDC034"/>
<path fill-rule="evenodd" clip-rule="evenodd" d="M333 284H366V281H333V284Z" fill="#547173"/>
<path fill-rule="evenodd" clip-rule="evenodd" d="M371 284H404V281H371V284Z" fill="#FFFFFE"/>
<path fill-rule="evenodd" clip-rule="evenodd" d="M409 284H439V281H409V284Z" fill="#FFFFFE"/>
<path d="M458 224H467V221H458V224Z" fill="#EDC034"/>
<path d="M458 224H467V221H458V224Z" stroke="#EDC034"/>
<path fill-rule="evenodd" clip-rule="evenodd" d="M379 224H453V221H379V224Z" fill="#FFFFFE"/>
<path fill-rule="evenodd" clip-rule="evenodd" d="M341 197H425V194H341V197Z" fill="#FFFFFE"/>
<path fill-rule="evenodd" clip-rule="evenodd" d="M300 196H305V191H300V196Z" fill="#FFFFFE"/>
<path fill-rule="evenodd" clip-rule="evenodd" d="M300 206H305V201H300V206Z" fill="#FFFFFE"/>
<path fill-rule="evenodd" clip-rule="evenodd" d="M300 217H305V212H300V217Z" fill="#FFFFFE"/>
<path fill-rule="evenodd" clip-rule="evenodd" d="M300 230H305V225H300V230Z" fill="#FFFFFE"/>
<path fill-rule="evenodd" clip-rule="evenodd" d="M300 240H305V235H300V240Z" fill="#FFFFFE"/>
<path fill-rule="evenodd" clip-rule="evenodd" d="M300 254H305V249H300V254Z" fill="#FFFFFE"/>
<path fill-rule="evenodd" clip-rule="evenodd" d="M300 265H305V260H300V265Z" fill="#FFFFFE"/>
<path fill-rule="evenodd" clip-rule="evenodd" d="M300 275H305V270H300V275Z" fill="#FFFFFE"/>
<path fill-rule="evenodd" clip-rule="evenodd" d="M300 287H305V282H300V287Z" fill="#FFFFFE"/>
<path fill-rule="evenodd" clip-rule="evenodd" d="M300 299H305V294H300V299Z" fill="#FFFFFE"/>
<path fill-rule="evenodd" clip-rule="evenodd" d="M392.498 84.5963H391.969C389.644 76.4676 382.263 70.5215 373.502 70.5215C369.677 70.5215 366.123 71.6681 363.126 73.6205C361.182 60.8139 350.305 51 337.137 51C325.319 51 315.32 58.8985 311.988 69.7787C310.488 69.3683 308.919 69.1316 307.292 69.1316C298.27 69.1316 290.816 75.8356 289.448 84.5963H286.504C279.078 84.5963 273 90.7596 273 98.2932V99.3031C273 106.837 279.078 113 286.504 113H392.498C399.924 113 406 106.837 406 99.3031V98.2932C406 90.7596 399.924 84.5963 392.498 84.5963Z" fill="#CDCECA"/>
<path fill-rule="evenodd" clip-rule="evenodd" d="M380.122 87.2614H379.656C377.612 80.1832 371.12 75.0037 363.412 75.0037C360.047 75.0037 356.919 76.0014 354.283 77.7029C352.574 66.548 343.006 58 331.42 58C321.023 58 312.228 64.8809 309.297 74.3558C307.978 73.9996 306.596 73.7915 305.165 73.7915C297.231 73.7915 290.67 79.6318 289.469 87.2614H286.878C280.345 87.2614 275 92.6297 275 99.1909V100.071C275 106.632 280.345 112 286.878 112H380.122C386.655 112 392 106.632 392 100.071V99.1909C392 92.6297 386.655 87.2614 380.122 87.2614Z" fill="#FFFFFE"/>
<path fill-rule="evenodd" clip-rule="evenodd" d="M354.2 73C350.282 66.9549 343.654 63.3448 336.477 63.3448C332.682 63.3448 328.955 64.3638 325.703 66.2949L324 63.4161C327.769 61.1818 332.083 60 336.477 60C344.792 60 352.463 64.1787 357 71.1804L354.2 73Z" fill="#3A3A39"/>
<path fill-rule="evenodd" clip-rule="evenodd" d="M392.916 113H376.778V109.805H392.916C399.465 109.805 404.794 104.495 404.794 97.9675V96.9792C404.794 90.4534 399.465 85.1436 392.916 85.1436H391.184L390.849 83.9914C388.679 76.5433 381.728 71.34 373.95 71.34C370.583 71.34 367.302 72.3027 364.457 74.1259L362.382 75.4549L362.005 73.0248C360.139 60.9549 349.892 52.1948 337.64 52.1948C330.345 52.1948 323.462 55.3853 318.758 60.9485C317.747 62.1455 316.849 63.4362 316.09 64.7865C315.252 66.2774 314.568 67.8599 314.062 69.4871L313.604 70.9567L312.114 70.5563C310.68 70.1708 309.242 69.9769 307.841 69.9769C299.708 69.9769 292.881 75.7872 291.609 83.7954L291.396 85.1436H287.086C280.535 85.1436 275.206 90.4534 275.206 96.9792V97.9675C275.206 104.495 280.535 109.805 287.086 109.805H302.491V113H287.086C278.767 113 272 106.257 272 97.9675V96.9792C272 88.692 278.767 81.9488 287.086 81.9488H288.704C290.744 73.0823 298.582 66.7822 307.841 66.7822C309.041 66.7822 310.259 66.8993 311.479 67.1336C311.982 65.7875 312.589 64.4777 313.292 63.2253C314.149 61.7003 315.162 60.2414 316.304 58.8932C321.622 52.6037 329.398 49 337.64 49C350.717 49 361.77 57.8304 364.737 70.3007C367.597 68.8865 370.739 68.1453 373.95 68.1453C382.743 68.1453 390.641 73.7702 393.559 81.9638C401.581 82.3003 408 88.905 408 96.9792V97.9675C408 106.257 401.233 113 392.916 113Z" fill="#3A3A39"/>
<path fill-rule="evenodd" clip-rule="evenodd" d="M319 78H315.782C315.782 73.7077 312.29 70.2176 308 70.2176V67C314.064 67 319 71.9337 319 78Z" fill="#3A3A39"/>
<path fill-rule="evenodd" clip-rule="evenodd" d="M340.945 156C337.553 156 334.208 155.489 331 154.481L331.974 151.394C338.667 153.504 346.075 153.161 352.552 150.429C356.103 148.926 359.292 146.782 362.028 144.049C364.766 141.316 366.916 138.132 368.421 134.587C369.973 130.916 370.761 127.02 370.761 123H374C374 127.453 373.126 131.776 371.403 135.846C369.736 139.779 367.352 143.307 364.319 146.336C361.287 149.362 357.751 151.739 353.813 153.405C349.732 155.127 345.403 156 340.945 156Z" fill="#3A3A39"/>
<path fill-rule="evenodd" clip-rule="evenodd" d="M337 150.339L331.45 153.092L334.035 159L330.582 157.659L328 151.75L333.548 149L337 150.339Z" fill="#3A3A39"/>
<path fill-rule="evenodd" clip-rule="evenodd" d="M312.591 136C310.872 131.916 310 127.576 310 123.107C310 118.638 310.872 114.301 312.591 110.216C314.252 106.273 316.63 102.734 319.658 99.6902C322.687 96.6509 326.213 94.2605 330.14 92.5926C338.273 89.138 347.677 89.1336 355.815 92.5926C358.77 93.8495 361.525 95.5303 364 97.5919L361.939 100.088C359.705 98.23 357.221 96.7136 354.555 95.5801C347.223 92.4715 338.732 92.4715 331.4 95.5801C327.859 97.0857 324.677 99.2402 321.944 101.985C319.21 104.731 317.065 107.926 315.568 111.48C314.017 115.164 313.231 119.075 313.231 123.107C313.231 127.142 314.017 131.053 315.568 134.737L312.591 136Z" fill="#3A3A39"/>
<path fill-rule="evenodd" clip-rule="evenodd" d="M354 97.5049L360.225 97.1925L359.909 91L362.684 93.4951L363 99.6854L356.777 100L354 97.5049Z" fill="#3A3A39"/>
<path fill-rule="evenodd" clip-rule="evenodd" d="M358 122.001C358 131.39 350.388 139 340.999 139C331.61 139 324 131.39 324 122.001C324 112.612 331.61 105 340.999 105C350.388 105 358 112.612 358 122.001Z" fill="#274548"/>
<path fill-rule="evenodd" clip-rule="evenodd" d="M340.499 107.214C332.071 107.214 325.214 114.071 325.214 122.499C325.214 130.929 332.071 137.786 340.499 137.786C348.929 137.786 355.786 130.929 355.786 122.499C355.786 114.071 348.929 107.214 340.499 107.214ZM340.499 141C330.299 141 322 132.701 322 122.499C322 112.299 330.299 104 340.499 104C350.701 104 359 112.299 359 122.499C359 132.701 350.701 141 340.499 141Z" fill="#274548"/>
<path fill-rule="evenodd" clip-rule="evenodd" d="M703 94V135.099H708.17V155.229C708.17 155.947 709.047 156.274 709.499 155.724L726.398 135.099H777V94H703Z" fill="#FFFFFE"/>
<path fill-rule="evenodd" clip-rule="evenodd" d="M709.613 157C709.339 157 709.061 156.951 708.789 156.855C707.836 156.51 707.221 155.639 707.221 154.636V136.505H702V123.011H705.235V133.296H710.456V152.3L726.5 133.296H776.765V96.2088H759.174V93H780V136.505H728.012L711.422 156.151C710.96 156.701 710.298 157 709.613 157Z" fill="#3A3A39"/>
<path fill-rule="evenodd" clip-rule="evenodd" d="M754 107H768V103H754V107Z" fill="#3A3A39"/>
<path fill-rule="evenodd" clip-rule="evenodd" d="M749 117H768V113H749V117Z" fill="#3A3A39"/>
<path fill-rule="evenodd" clip-rule="evenodd" d="M737 127H770V123H737V127Z" fill="#3A3A39"/>
<path fill-rule="evenodd" clip-rule="evenodd" d="M690.119 119L707.257 115.849C711.304 117.649 715.777 118.673 720.499 118.673C738.45 118.673 753 104.195 753 86.3364C753 68.4777 738.45 54 720.499 54C702.55 54 688 68.4777 688 86.3364C688 92.6425 689.843 98.5075 692.98 103.482L690.119 119Z" fill="#274548"/>
<path fill-rule="evenodd" clip-rule="evenodd" d="M707.296 116.186L707.753 116.388C711.81 118.183 716.096 119.092 720.499 119.092C737.748 119.092 751.78 105.207 751.78 88.1421C751.78 71.0732 737.748 57.1861 720.499 57.1861C703.252 57.1861 689.22 71.0732 689.22 88.1421C689.22 93.9323 690.879 99.6056 694.015 104.55L694.346 105.075L691.759 119.026L707.296 116.186ZM687.752 123L690.954 105.71C687.711 100.385 686 94.3252 686 88.1421C686 69.3145 701.476 54 720.499 54C739.524 54 755 69.3145 755 88.1421C755 106.963 739.524 122.278 720.499 122.278C715.809 122.278 711.237 121.343 706.903 119.497L687.752 123Z" fill="#3A3A39"/>
<path fill-rule="evenodd" clip-rule="evenodd" d="M721.499 114C707.416 114 696 102.583 696 88.5C696 74.4167 707.416 63 721.499 63C735.584 63 747 74.4167 747 88.5C747 102.583 735.584 114 721.499 114Z" fill="#FFFFFE"/>
<path fill-rule="evenodd" clip-rule="evenodd" d="M732 89.5C732 91.4336 733.568 93 735.5 93C737.434 93 739 91.4336 739 89.5C739 87.5664 737.434 86 735.5 86C733.568 86 732 87.5664 732 89.5Z" fill="#FFFFFE"/>
<path fill-rule="evenodd" clip-rule="evenodd" d="M715 89.5C715 91.4336 716.568 93 718.501 93C720.432 93 722 91.4336 722 89.5C722 87.5664 720.432 86 718.501 86C716.568 86 715 87.5664 715 89.5Z" fill="#FFFFFE"/>
<path fill-rule="evenodd" clip-rule="evenodd" d="M699 89.5C699 91.4336 700.566 93 702.5 93C704.434 93 706 91.4336 706 89.5C706 87.5664 704.434 86 702.5 86C700.566 86 699 87.5664 699 89.5Z" fill="#FFFFFE"/>
<path fill-rule="evenodd" clip-rule="evenodd" d="M736.501 86.1062C735.18 86.1062 734.106 87.1809 734.106 88.4979C734.106 89.8191 735.18 90.8938 736.501 90.8938C737.82 90.8938 738.894 89.8191 738.894 88.4979C738.894 87.1809 737.82 86.1062 736.501 86.1062ZM736.501 94C733.468 94 731 91.5316 731 88.4979C731 85.4684 733.468 83 736.501 83C739.532 83 742 85.4684 742 88.4979C742 91.5316 739.532 94 736.501 94Z" fill="#3A3A39"/>
<path fill-rule="evenodd" clip-rule="evenodd" d="M719.501 86.1062C718.18 86.1062 717.106 87.1809 717.106 88.4979C717.106 89.8191 718.18 90.8938 719.501 90.8938C720.82 90.8938 721.894 89.8191 721.894 88.4979C721.894 87.1809 720.82 86.1062 719.501 86.1062ZM719.501 94C716.468 94 714 91.5316 714 88.4979C714 85.4684 716.468 83 719.501 83C722.532 83 725 85.4684 725 88.4979C725 91.5316 722.532 94 719.501 94Z" fill="#3A3A39"/>
<path fill-rule="evenodd" clip-rule="evenodd" d="M703.499 86.1062C702.18 86.1062 701.106 87.1809 701.106 88.4979C701.106 89.8191 702.18 90.8938 703.499 90.8938C704.82 90.8938 705.894 89.8191 705.894 88.4979C705.894 87.1809 704.82 86.1062 703.499 86.1062ZM703.499 94C700.468 94 698 91.5316 698 88.4979C698 85.4684 700.468 83 703.499 83C706.532 83 709 85.4684 709 88.4979C709 91.5316 706.532 94 703.499 94Z" fill="#3A3A39"/>
<path fill-rule="evenodd" clip-rule="evenodd" d="M32.1733 333.495H974.616V329.745H32.1733V333.495Z" fill="#3A3A39"/>
</svg>
