<svg width="206" height="205" viewBox="0 0 206 205" fill="none" xmlns="http://www.w3.org/2000/svg">
<path fill-rule="evenodd" clip-rule="evenodd" d="M103.098 204.262C159.504 204.262 205.23 158.537 205.23 102.131C205.23 45.7257 159.504 0 103.098 0C46.693 0 0.967285 45.7257 0.967285 102.131C0.967285 158.537 46.693 204.262 103.098 204.262Z" fill="white"/>
<path fill-rule="evenodd" clip-rule="evenodd" d="M158.541 138.931C158.541 144.39 154.113 148.82 148.645 148.82H54.6337C49.1712 148.82 44.7378 144.39 44.7378 138.931V69.7092C44.7378 64.2505 49.1712 59.8203 54.6337 59.8203H148.645C154.113 59.8203 158.541 64.2505 158.541 69.7092V138.931Z" stroke="#274548" stroke-width="2" stroke-linecap="round" stroke-linejoin="round"/>
<path d="M44.7378 84.623H158.541" stroke="#274548" stroke-width="2" stroke-linecap="round" stroke-linejoin="round"/>
<path fill-rule="evenodd" clip-rule="evenodd" d="M62.2462 72.2217C62.2462 73.4298 61.2657 74.4103 60.0577 74.4103C58.8496 74.4103 57.8691 73.4298 57.8691 72.2217C57.8691 71.0137 58.8496 70.0332 60.0577 70.0332C61.2657 70.0332 62.2462 71.0137 62.2462 72.2217Z" stroke="#274548" stroke-width="2" stroke-linecap="round" stroke-linejoin="round"/>
<path fill-rule="evenodd" clip-rule="evenodd" d="M78.295 72.2217C78.295 73.4298 77.3146 74.4103 76.1065 74.4103C74.8984 74.4103 73.918 73.4298 73.918 72.2217C73.918 71.0137 74.8984 70.0332 76.1065 70.0332C77.3146 70.0332 78.295 71.0137 78.295 72.2217Z" stroke="#EDC034" stroke-width="2" stroke-linecap="round" stroke-linejoin="round"/>
<path fill-rule="evenodd" clip-rule="evenodd" d="M94.3443 72.2217C94.3443 73.4298 93.3639 74.4103 92.1558 74.4103C90.9477 74.4103 89.9673 73.4298 89.9673 72.2217C89.9673 71.0137 90.9477 70.0332 92.1558 70.0332C93.3639 70.0332 94.3443 71.0137 94.3443 72.2217Z" stroke="#EDC034" stroke-width="2" stroke-linecap="round" stroke-linejoin="round"/>
<path d="M69.541 105.049L81.2131 117.45L69.541 129.852" stroke="#274548" stroke-width="2" stroke-linecap="round" stroke-linejoin="round"/>
<path d="M98.7212 119.639H119.147" stroke="#EDC034" stroke-width="2" stroke-linecap="round" stroke-linejoin="round"/>
</svg>
