<svg width="267" height="119" viewBox="0 0 267 119" fill="none" xmlns="http://www.w3.org/2000/svg">
<path fill-rule="evenodd" clip-rule="evenodd" d="M225 81H90V4.11553C90 2.3952 91.4004 1 93.1272 1H221.874C223.601 1 225 2.3952 225 4.11553V81Z" fill="#515251"/>
<path fill-rule="evenodd" clip-rule="evenodd" d="M103.669 2H198V0H103.669L103.669 2Z" fill="#3A3A39"/>
<path fill-rule="evenodd" clip-rule="evenodd" d="M106 2H111V0H106V2Z" fill="#3A3A39"/>
<path fill-rule="evenodd" clip-rule="evenodd" d="M225 83H89V8.13333C89 3.64839 92.6291 0 97.0888 0H103.933V2.38561H97.0888C93.9374 2.38561 91.373 4.96365 91.373 8.13333V80.6144H225V83Z" fill="#3A3A39"/>
<path fill-rule="evenodd" clip-rule="evenodd" d="M96 72H216V8H96V72Z" fill="#FFFFFE"/>
<path fill-rule="evenodd" clip-rule="evenodd" d="M137 118H178V94H137V118Z" fill="#FFFFFE"/>
<path fill-rule="evenodd" clip-rule="evenodd" d="M137 106H178V94H137V106Z" fill="#CDCECA"/>
<path fill-rule="evenodd" clip-rule="evenodd" d="M179 117H176.626V95.3477H138.374V117H136V93H179V117Z" fill="#3A3A39"/>
<path fill-rule="evenodd" clip-rule="evenodd" d="M225 78H90V87.7749C90 92.8695 93.9636 97 98.8524 97H216.148C221.036 97 225 92.8695 225 87.7749V78Z" fill="#FFFFFE"/>
<path fill-rule="evenodd" clip-rule="evenodd" d="M218 98H97.2161C92.6862 98 89 94.2549 89 89.651V77H218V79.4214H91.3833V89.651C91.3833 92.9199 94.0002 95.5786 97.2161 95.5786H218V98Z" fill="#3A3A39"/>
<path fill-rule="evenodd" clip-rule="evenodd" d="M136 117.001H136.75V117H136V117.001Z" fill="#B1B3B2"/>
<path fill-rule="evenodd" clip-rule="evenodd" d="M143.187 118H137V117.029H138.147V112.493C138.174 112.377 138.187 112.257 138.187 112.134V106H142.395V107.955H147L146.152 113.292C145.834 115.291 144.719 116.952 143.187 118Z" fill="#C0BFBB"/>
<path fill-rule="evenodd" clip-rule="evenodd" d="M138 106H142V98H138V106Z" fill="#9E9F9C"/>
<path fill-rule="evenodd" clip-rule="evenodd" d="M138 116H136V113.076H136.701C137.331 113.076 137.863 112.614 138 112V116Z" fill="#3A3A39"/>
<path fill-rule="evenodd" clip-rule="evenodd" d="M137.691 78H142V73.0623H137.691V78ZM91 36.2004H97.0704V35H91V36.2004Z" fill="#4A4A49"/>
<path fill-rule="evenodd" clip-rule="evenodd" d="M89 35.75H91V35H89V35.75Z" fill="#3A3A39"/>
<path fill-rule="evenodd" clip-rule="evenodd" d="M142 72H137.588V37.7228C137.588 37.0677 137.165 36.503 136.571 36.2758H141.01C141.626 36.9464 142 37.8301 142 38.7963V72ZM96 36.1669H104.625V35H96V36.1669Z" fill="#C0BFBB"/>
<path fill-rule="evenodd" clip-rule="evenodd" d="M138 95H142V80H138V95Z" fill="#C0BFBB"/>
<path fill-rule="evenodd" clip-rule="evenodd" d="M138 98H142V95.5786H138V98ZM138 79.4214H142V77H138V79.4214Z" fill="#3A3A39"/>
<path fill-rule="evenodd" clip-rule="evenodd" d="M141 35.82H136.608C136.427 35.775 136.232 35.75 136.027 35.75H105V35H138.106C139.256 35 140.29 35.317 141 35.82Z" fill="#BA8D3D"/>
<path fill-rule="evenodd" clip-rule="evenodd" d="M136.412 114H31.5877C30.7145 114 30 113.282 30 112.405V37.5953C30 36.7179 30.7145 36 31.5877 36H136.412C137.286 36 138 36.7179 138 37.5953V112.405C138 113.282 137.286 114 136.412 114Z" fill="#515251"/>
<path fill-rule="evenodd" clip-rule="evenodd" d="M32 114C29.7951 114 28 112.279 28 110.164V65H30.459V110.164C30.459 110.98 31.1508 111.643 32 111.643V114Z" fill="#3A3A39"/>
<path fill-rule="evenodd" clip-rule="evenodd" d="M138 109H135.649V38.8511C135.649 38.0336 134.989 37.3675 134.176 37.3675H78V35H134.176C136.286 35 138 36.7283 138 38.8511V109Z" fill="#3A3A39"/>
<path fill-rule="evenodd" clip-rule="evenodd" d="M35 104H131V42H35V104Z" fill="#274548"/>
<path fill-rule="evenodd" clip-rule="evenodd" d="M135.585 118H30.8133C28.298 118 26.1535 116.148 25.7464 113.626L25 109H73.5595L75.4183 111.71H88.836L90.8447 109H142L141.351 113.023C140.888 115.893 138.446 118 135.585 118Z" fill="#FFFFFE"/>
<path fill-rule="evenodd" clip-rule="evenodd" d="M25.7917 110.32L26.3149 113.433C26.6295 115.315 28.272 116.68 30.2195 116.68H135.178C137.475 116.68 139.413 115.07 139.783 112.853L140.21 110.32H90.9475L88.9367 112.935H74.2843L72.4237 110.32H25.7917ZM135.178 119H30.2195C27.1053 119 24.478 116.816 23.9738 113.809L23 108H73.6614L75.5236 110.615H87.7542L89.765 108H143L142.123 113.229C141.563 116.572 138.642 119 135.178 119Z" fill="#3A3A39"/>
<path fill-rule="evenodd" clip-rule="evenodd" d="M48 48.895H59V48H48V48.895Z" fill="#FFFFFE"/>
<path fill-rule="evenodd" clip-rule="evenodd" d="M54 53.896H62V53H54V53.896Z" fill="#FFFFFE"/>
<path fill-rule="evenodd" clip-rule="evenodd" d="M78 53.896H131V53H78V53.896Z" fill="#FFFFFE"/>
<path fill-rule="evenodd" clip-rule="evenodd" d="M66 53.896H75V53H66V53.896Z" fill="#FFFFFE"/>
<path fill-rule="evenodd" clip-rule="evenodd" d="M56 57.895H71V57H56V57.895Z" fill="#FFFFFE"/>
<path fill-rule="evenodd" clip-rule="evenodd" d="M62 63.895H81V63H62V63.895Z" fill="#FFFFFE"/>
<path fill-rule="evenodd" clip-rule="evenodd" d="M48 69.895H69V69H48V69.895Z" fill="#FFFFFE"/>
<path fill-rule="evenodd" clip-rule="evenodd" d="M71 69.895H86V69H71V69.895Z" fill="#FFFFFE"/>
<path fill-rule="evenodd" clip-rule="evenodd" d="M54 74.896H81V74H54V74.896Z" fill="#FFFFFE"/>
<path fill-rule="evenodd" clip-rule="evenodd" d="M92 74.896H111V74H92V74.896Z" fill="#FFFFFE"/>
<path fill-rule="evenodd" clip-rule="evenodd" d="M82 74.896H91V74H82V74.896Z" fill="#FFFFFE"/>
<path fill-rule="evenodd" clip-rule="evenodd" d="M62 78.896H86V78H62V78.896Z" fill="#FFFFFE"/>
<path fill-rule="evenodd" clip-rule="evenodd" d="M56 78.896H61V78H56V78.896Z" fill="#FFFFFE"/>
<path fill-rule="evenodd" clip-rule="evenodd" d="M48 83.895H64V83H48V83.895Z" fill="#FFFFFE"/>
<path fill-rule="evenodd" clip-rule="evenodd" d="M66 83.895H71V83H66V83.895Z" fill="#FFFFFE"/>
<path fill-rule="evenodd" clip-rule="evenodd" d="M73 83.895H100V83H73V83.895Z" fill="#FFFFFE"/>
<path fill-rule="evenodd" clip-rule="evenodd" d="M102 83.895H126V83H102V83.895Z" fill="#FFFFFE"/>
<path fill-rule="evenodd" clip-rule="evenodd" d="M54 88.896H63V88H54V88.896Z" fill="#FFFFFE"/>
<path fill-rule="evenodd" clip-rule="evenodd" d="M65 88.896H86V88H65V88.896Z" fill="#FFFFFE"/>
<path fill-rule="evenodd" clip-rule="evenodd" d="M58 94.896H74V94H58V94.896Z" fill="#FFFFFE"/>
<path fill-rule="evenodd" clip-rule="evenodd" d="M78 94.896H94V94H78V94.896Z" fill="#FFFFFE"/>
<path fill-rule="evenodd" clip-rule="evenodd" d="M97 94.896H112V94H97V94.896Z" fill="#FFFFFE"/>
<path fill-rule="evenodd" clip-rule="evenodd" d="M124 63.896H128V63H124V63.896Z" fill="#FFFFFE"/>
<path fill-rule="evenodd" clip-rule="evenodd" d="M82 63.896H120V63H82V63.896Z" fill="#FFFFFE"/>
<path fill-rule="evenodd" clip-rule="evenodd" d="M62 48.895H106V48H62V48.895Z" fill="#FFFFFE"/>
<path fill-rule="evenodd" clip-rule="evenodd" d="M40 48H42V46H40V48Z" fill="#FFFFFE"/>
<path fill-rule="evenodd" clip-rule="evenodd" d="M40 54H42V52H40V54Z" fill="#FFFFFE"/>
<path fill-rule="evenodd" clip-rule="evenodd" d="M40 60H42V58H40V60Z" fill="#FFFFFE"/>
<path fill-rule="evenodd" clip-rule="evenodd" d="M40 66H42V64H40V66Z" fill="#FFFFFE"/>
<path fill-rule="evenodd" clip-rule="evenodd" d="M40 72H42V70H40V72Z" fill="#FFFFFE"/>
<path fill-rule="evenodd" clip-rule="evenodd" d="M40 78H42V76H40V78Z" fill="#FFFFFE"/>
<path fill-rule="evenodd" clip-rule="evenodd" d="M40 84H42V82H40V84Z" fill="#FFFFFE"/>
<path fill-rule="evenodd" clip-rule="evenodd" d="M40 90H42V88H40V90Z" fill="#FFFFFE"/>
<path fill-rule="evenodd" clip-rule="evenodd" d="M40 96H42V94H40V96Z" fill="#FFFFFE"/>
<path fill-rule="evenodd" clip-rule="evenodd" d="M40 102H42V100H40V102Z" fill="#FFFFFE"/>
<path fill-rule="evenodd" clip-rule="evenodd" d="M30 37H31V36H30V37Z" fill="#A7A8A8"/>
<path fill-rule="evenodd" clip-rule="evenodd" d="M35.2495 63H30V37.582C30 36.7119 30.715 36 31.5888 36H78V42.086H35.2495V63Z" fill="#41403F"/>
<path fill-rule="evenodd" clip-rule="evenodd" d="M61.9439 63H35V42H78V48.2793H61.9439V49.7011H78V53.1386H77.4838V54.5619H78V58.414C78 60.6585 76.3779 62.525 74.2365 62.9222H61.9439V63ZM40.4255 60.5076H42.7284V58.2186H40.4255V60.5076ZM55.8664 58.6157H70.8693V57.194H55.8664V58.6157ZM66.0143 54.5619H74.4842V53.1386H66.0143V54.5619ZM53.303 54.5619H60.8316V53.1386H53.303V54.5619ZM40.4255 54.4793H42.7284V52.1887H40.4255V54.4793ZM47.8375 49.7011H58.7685V48.2793H47.8375V49.7011ZM40.4255 48.4493H42.7284V46.1603H40.4255V48.4493Z" fill="#313130"/>
<path fill-rule="evenodd" clip-rule="evenodd" d="M48 48.895H59V48H48V48.895Z" fill="#B6B5B1"/>
<path fill-rule="evenodd" clip-rule="evenodd" d="M54 53.896H62V53H54V53.896Z" fill="#B6B5B1"/>
<path fill-rule="evenodd" clip-rule="evenodd" d="M78 53.896H78.323V53H78V53.896Z" fill="#B6B5B1"/>
<path fill-rule="evenodd" clip-rule="evenodd" d="M66 53.896H75V53H66V53.896Z" fill="#B6B5B1"/>
<path fill-rule="evenodd" clip-rule="evenodd" d="M56 57.895H71V57H56V57.895Z" fill="#B6B5B1"/>
<path fill-rule="evenodd" clip-rule="evenodd" d="M73.17 63.049H62V63H74C73.7301 63.032 73.4524 63.049 73.17 63.049Z" fill="#B6B5B1"/>
<path fill-rule="evenodd" clip-rule="evenodd" d="M62 48.895H78V48H62V48.895Z" fill="#B6B5B1"/>
<path fill-rule="evenodd" clip-rule="evenodd" d="M40 48H42V46H40V48Z" fill="#B6B5B1"/>
<path fill-rule="evenodd" clip-rule="evenodd" d="M40 54H42V52H40V54Z" fill="#B6B5B1"/>
<path fill-rule="evenodd" clip-rule="evenodd" d="M40 60H42V58H40V60Z" fill="#B6B5B1"/>
<path fill-rule="evenodd" clip-rule="evenodd" d="M72.6046 61H26.3938C23.9676 61 22 59.0745 22 56.6986V26.3014C22 23.9255 23.9676 22 26.3938 22H72.6046C75.0324 22 77 23.9255 77 26.2999V56.6986C77 59.0745 75.0324 61 72.6046 61Z" fill="#FFFFFE"/>
<path fill-rule="evenodd" clip-rule="evenodd" d="M22 31V24.9202C22 23.3063 23.2332 22 24.755 22H74.2434C75.7652 22 77 23.3063 77 24.9202V31H22Z" fill="#B6B8B5"/>
<path fill-rule="evenodd" clip-rule="evenodd" d="M74.0687 62H24.9313C22.7626 62 21 60.2357 21 58.0665V23.9351C21 21.7643 22.7626 20 24.9313 20H29.5L32.1809 22.3907H24.9313C24.081 22.3907 23.3884 23.084 23.3884 23.9351V58.0665C23.3884 58.9176 24.081 59.6093 24.9313 59.6093H74.0687C74.919 59.6093 75.6116 58.9176 75.6116 58.0665V23.9351C75.6116 23.084 74.919 22.3907 74.0687 22.3907H32.1809L29.5 20H74.0687C76.2358 20 78 21.7643 78 23.9351V58.0665C78 60.2357 76.2358 62 74.0687 62Z" fill="#3A3A39"/>
<path fill-rule="evenodd" clip-rule="evenodd" d="M34 22H38V20H34V22Z" fill="#3A3A39"/>
<path fill-rule="evenodd" clip-rule="evenodd" d="M22 31H77V29H22V31Z" fill="#3A3A39"/>
<path fill-rule="evenodd" clip-rule="evenodd" d="M26 27H26.592V25H26V27Z" fill="#3A3A39"/>
<path fill-rule="evenodd" clip-rule="evenodd" d="M30 27H30.592V25H30V27Z" fill="#3A3A39"/>
<path fill-rule="evenodd" clip-rule="evenodd" d="M33 27H33.592V25H33V27Z" fill="#3A3A39"/>
<path fill-rule="evenodd" clip-rule="evenodd" d="M38 44.9209V43.0791L43 40V41.9765L39.6965 43.9654L43 46.0111V48L38 44.9209Z" fill="#3A3A39"/>
<path fill-rule="evenodd" clip-rule="evenodd" d="M50.2286 38H52L46.7599 49H45L50.2286 38Z" fill="#3A3A39"/>
<path fill-rule="evenodd" clip-rule="evenodd" d="M59 43.0791V44.9209L54 48V46.0111L57.3021 43.9654L54 41.9765V40L59 43.0791Z" fill="#3A3A39"/>
<path fill-rule="evenodd" clip-rule="evenodd" d="M0 119H4V117H0V119Z" fill="#3A3A39"/>
<path fill-rule="evenodd" clip-rule="evenodd" d="M7 119H267V117H7V119Z" fill="#3A3A39"/>
</svg>
