<svg width="206" height="205" viewBox="0 0 206 205" fill="none" xmlns="http://www.w3.org/2000/svg">
<path fill-rule="evenodd" clip-rule="evenodd" d="M103.049 204.262C159.455 204.262 205.18 158.537 205.18 102.131C205.18 45.7257 159.455 0 103.049 0C46.6436 0 0.917969 45.7257 0.917969 102.131C0.917969 158.537 46.6436 204.262 103.049 204.262Z" fill="white"/>
<path fill-rule="evenodd" clip-rule="evenodd" d="M141.654 84.7129C141.654 62.3728 120.571 49.6064 101.436 49.6064C77.6502 49.6064 59.2783 68.2698 59.2783 92.0664C59.2783 105.579 63.716 118.261 77.0289 126.16V151.738H121.405V136.298C130.281 136.347 134.794 135.703 137.905 132.586C141.894 128.598 141.512 111.773 141.512 111.773C141.512 111.773 145.298 111.915 148.16 111.8C149.154 111.755 150.144 111.254 150.712 110.437C151.284 109.62 151.102 108.634 151.178 107.639C151.688 100.508 141.654 88.2697 141.654 84.7129Z" stroke="#274548" stroke-width="2" stroke-linejoin="round"/>
<path fill-rule="evenodd" clip-rule="evenodd" d="M99.3318 70.0332H112.647L106.157 85.6561H116.18L94.4219 119.64L98.7148 97.3732H88.4585L99.3318 70.0332Z" stroke="#EDC034" stroke-width="2" stroke-linejoin="round"/>
</svg>
