<svg width="263" height="93" viewBox="0 0 263 93" fill="none" xmlns="http://www.w3.org/2000/svg">
<g filter="url(#filter0_d)">
<path fill-rule="evenodd" clip-rule="evenodd" d="M179 83.0078H181V48.0078H179V83.0078Z" fill="#3A3A39"/>
<path fill-rule="evenodd" clip-rule="evenodd" d="M76 31.163C76 25.0276 70.825 20.0078 64.5 20.0078C58.175 20.0078 53 25.0276 53 31.163V34.1556C53 34.6256 53.3926 35.0078 53.8771 35.0078H75.1214C75.606 35.0078 76 34.6256 76 34.1556V31.163Z" fill="#9FE2DD"/>
<path fill-rule="evenodd" clip-rule="evenodd" d="M54.1727 33.8997H74.8273V31.1366C74.8273 25.6119 70.1952 21.1159 64.5 21.1159C58.8048 21.1159 54.1727 25.6119 54.1727 31.1366V33.8997ZM75.0417 36.0078H53.9583C52.8778 36.0078 52 35.1561 52 34.1077V31.1366C52 24.4482 57.6069 19.0078 64.5 19.0078C71.3917 19.0078 77 24.4482 77 31.1366V34.1077C77 35.1561 76.1208 36.0078 75.0417 36.0078Z" fill="#3A3A39"/>
<path fill-rule="evenodd" clip-rule="evenodd" d="M77 64.0078V62.0471C77 55.4259 71.601 50.0078 65 50.0078C58.4004 50.0078 53 55.4259 53 62.0471V64.0078H77Z" fill="#9FE2DD"/>
<path fill-rule="evenodd" clip-rule="evenodd" d="M77 64.0078V62.0955C77 58.9648 75.8526 56.1175 74 54.0078C74 56.1641 74 59.3258 74 62.843V64.0078H77Z" fill="#FFFFFE"/>
<path fill-rule="evenodd" clip-rule="evenodd" d="M56 63.8032C56 60.3469 56 57.2245 56 55.0078C54.1423 57.1531 53 59.959 53 63.0303V65.0078H56V63.8032Z" fill="#FFFFFE"/>
<path fill-rule="evenodd" clip-rule="evenodd" d="M61.8837 60.0078H67.1988C69.669 60.0078 71.0928 58.1442 70.9953 55.2378V52.1884C69.5422 51.0196 67.7756 50.2385 65.8474 50.0078C64.5823 50.022 63.5221 50.0404 63.2908 50.0644C63.2406 50.0701 63.1194 50.0771 62.9522 50.0842C61.0993 50.4012 59.4121 51.2191 58.0328 52.4049V55.5476C57.7319 57.9079 59.5403 60.0078 61.8837 60.0078Z" fill="#FFFFFE"/>
<path fill-rule="evenodd" clip-rule="evenodd" d="M59.1064 52.9328V55.542C58.9931 56.4942 59.2405 57.3192 59.7783 57.94C60.3147 58.5566 61.0874 58.9104 61.8975 58.9104H67.1826C67.9802 58.9104 68.6161 58.6671 69.0737 58.1875C69.6723 57.5625 69.9654 56.5529 69.9225 55.2707L69.9211 52.7398C68.6742 51.8435 67.2309 51.2786 65.7172 51.0982C63.9408 51.129 63.4942 51.1458 63.4002 51.1556C63.374 51.1598 63.2371 51.1695 63.0477 51.1793C61.6584 51.417 60.2842 52.0225 59.1064 52.9328ZM67.1826 61.0078H61.8975C60.4916 61.0078 59.1507 60.3926 58.2217 59.3243C57.2899 58.2504 56.8586 56.8228 57.0411 55.4063L57.0328 51.9442L57.3991 51.6296C58.9378 50.3124 60.8013 49.4371 62.7878 49.0987L63.1763 49.0707C63.3671 49.0512 63.8067 49.0316 65.8264 49.0078C68.0175 49.2609 69.9681 50.0831 71.6022 51.3947L71.9948 51.7107V55.2357C72.057 57.0647 71.5621 58.6014 70.5654 59.6445C69.7138 60.5366 68.5429 61.0078 67.1826 61.0078Z" fill="#3A3A39"/>
<path fill-rule="evenodd" clip-rule="evenodd" d="M79 64.0078H76.7985V62.058C76.7985 56.052 71.8115 51.1646 65.6797 51.1646C63.0306 51.1646 60.4578 52.105 58.4383 53.8118L57 52.1783C59.4201 50.1351 62.5022 49.0078 65.6797 49.0078C73.0252 49.0078 79 54.8629 79 62.058V64.0078Z" fill="#3A3A39"/>
<path fill-rule="evenodd" clip-rule="evenodd" d="M54.8846 57.0078L53 56.0064C53.3832 55.2988 53.8333 54.6265 54.3376 54.0078L56 55.3369C55.5783 55.8539 55.2037 56.416 54.8846 57.0078Z" fill="#3A3A39"/>
<path fill-rule="evenodd" clip-rule="evenodd" d="M53.7637 64.0078H52V62.0323C52 61.0125 52.0952 59.9956 52.2834 59.0078L54 59.509C53.8424 60.3336 53.7637 61.1829 53.7637 62.0323V64.0078Z" fill="#3A3A39"/>
<path fill-rule="evenodd" clip-rule="evenodd" d="M64.5 55.0078C63.1185 55.0078 62 53.8111 62 52.333V46.6827C62 45.206 63.1185 44.0078 64.5 44.0078C65.8802 44.0078 67 45.206 67 46.6827V52.333C67 53.8111 65.8802 55.0078 64.5 55.0078Z" fill="#FFFFFE"/>
<path fill-rule="evenodd" clip-rule="evenodd" d="M69 53.0078H66.6608V46.6271C66.6608 45.7974 65.9154 45.1244 65 45.1244C64.083 45.1244 63.3392 45.7974 63.3392 46.6271V53.0078H61V46.6271C61 44.6305 62.7934 43.0078 65 43.0078C67.2051 43.0078 69 44.6305 69 46.6271V53.0078Z" fill="#3A3A39"/>
<path fill-rule="evenodd" clip-rule="evenodd" d="M68.8545 49.4065L67.1432 50.0078H61.9287L60.2188 49.4065C57.095 48.3097 55.0718 45.8085 55.0718 43.0419L55 35.7993H55.398C58.6741 35.7993 61.8209 33.3249 63.7305 31.1624L64.7507 30.0078L65.6502 31.058C67.5512 33.2812 70.5989 35.7993 73.9296 35.7993L74 43.0419C74 45.8085 71.9783 48.3097 68.8545 49.4065Z" fill="#FFFFFE"/>
<path fill-rule="evenodd" clip-rule="evenodd" d="M67.9535 50.0078H62.0465L60.048 49.2036C56.3733 47.7224 54 44.3591 54 40.6314V35.0078H56.2489V40.6314C56.2489 43.5228 58.09 46.1322 60.9415 47.2812L62.5127 47.9136H67.4873L69.0585 47.2812C71.9085 46.1322 73.7511 43.5228 73.7511 40.6314V35.0078H76V40.6314C76 44.3591 73.6252 47.7224 69.952 49.2036L67.9535 50.0078Z" fill="#3A3A39"/>
<path fill-rule="evenodd" clip-rule="evenodd" d="M73 37.0078C69.3998 37.0078 66.0245 35.1188 63.9686 31.9571L63.9419 31.915L63.8141 32.1058C61.7526 35.176 58.4124 37.0078 54.8783 37.0078H54V34.7537H54.8783C57.7351 34.7537 60.4345 33.272 62.1011 30.7909L63.9686 28.0078L65.6999 30.6707C67.3608 33.2284 70.0912 34.7537 73 34.7537V37.0078Z" fill="#3A3A39"/>
<path fill-rule="evenodd" clip-rule="evenodd" d="M59.9993 38.0078C59.2442 38.0078 58.5332 37.756 58 37.2974L59.5087 36.009C59.7718 36.2329 60.2268 36.2341 60.4913 36.0078L62 37.2986C61.4653 37.756 60.7544 38.0078 59.9993 38.0078Z" fill="#3A3A39"/>
<path fill-rule="evenodd" clip-rule="evenodd" d="M68.9993 38.0078C68.2442 38.0078 67.5332 37.7558 67 37.2969L68.5087 36.0078C68.7718 36.2318 69.2282 36.2318 69.4913 36.0078L71 37.2969C70.4668 37.7558 69.7558 38.0078 68.9993 38.0078Z" fill="#3A3A39"/>
<path fill-rule="evenodd" clip-rule="evenodd" d="M63 61.0078H65V57.0078H63V61.0078Z" fill="#3A3A39"/>
<path fill-rule="evenodd" clip-rule="evenodd" d="M65.5 42.5078H63V40.0078H64.5109V40.9401H65.5V42.5078Z" fill="#3A3A39"/>
<path fill-rule="evenodd" clip-rule="evenodd" d="M66.0891 47.0078H63.912C62.5351 47.0078 61.1891 46.4382 60.2199 45.4431L60 45.2191L61.1747 44.0269L61.3946 44.2521C62.0555 44.9309 62.9727 45.3193 63.912 45.3193H66.0891C66.9941 45.3193 67.8561 44.9714 68.517 44.341L68.8651 44.0078L70 45.2382L69.6508 45.5714C68.6816 46.4979 67.4163 47.0078 66.0891 47.0078Z" fill="#3A3A39"/>
<path fill-rule="evenodd" clip-rule="evenodd" d="M64.5 71.0078C48.2332 71.0078 35 57.7746 35 41.5078C35 25.241 48.2332 12.0078 64.5 12.0078C68.4815 12.0078 72.345 12.7874 75.9827 14.3265L75.1427 16.3129C71.7725 14.8889 68.1924 14.1654 64.5 14.1654C49.4228 14.1654 37.1576 26.4306 37.1576 41.5078C37.1576 56.585 49.4228 68.8502 64.5 68.8502C79.5772 68.8502 91.8424 56.585 91.8424 41.5078C91.8424 35.0868 89.5712 28.8471 85.4502 23.9364L87.1015 22.5484C91.5504 27.8474 94 34.5805 94 41.5078C94 57.7746 80.7668 71.0078 64.5 71.0078Z" fill="#3A3A39"/>
<path fill-rule="evenodd" clip-rule="evenodd" d="M85.3485 23.0078C84.9136 22.549 84.4636 22.1037 84 21.6721L85.5439 20.0078C86.0455 20.4697 86.5318 20.9513 87 21.4465L85.3485 23.0078Z" fill="#3A3A39"/>
<path fill-rule="evenodd" clip-rule="evenodd" d="M81.7247 20.0078C80.5492 19.1649 79.2963 18.4107 78 17.7692L78.9803 16.0078C80.3792 16.7023 81.7317 17.5161 83 18.4266L81.7247 20.0078Z" fill="#3A3A39"/>
<path fill-rule="evenodd" clip-rule="evenodd" d="M54 37.1522L53.8094 37.3781V38.6375C53.8094 38.8863 54.1906 38.8863 54.1906 38.6375V37.3781L54 37.1522ZM54 41.0078C52.8975 41.0078 52 39.9442 52 38.6375V37.3781C52 36.0714 52.8975 35.0078 54 35.0078C55.1025 35.0078 56 36.0714 56 37.3781V38.6375C56 39.9442 55.1025 41.0078 54 41.0078Z" fill="#3A3A39"/>
<path fill-rule="evenodd" clip-rule="evenodd" d="M76 38.6611C76 39.4042 75.5518 40.0078 75 40.0078C74.4471 40.0078 74 39.4042 74 38.6611V37.3545C74 36.61 74.4471 36.0078 75 36.0078C75.5518 36.0078 76 36.61 76 37.3545V38.6611Z" fill="#FFFFFE"/>
<path fill-rule="evenodd" clip-rule="evenodd" d="M76 37.1522L75.8094 37.3781V38.6375C75.8106 38.8877 76.1918 38.8863 76.1906 38.6375V37.3781L76 37.1522ZM76 41.0078C74.8975 41.0078 74 39.9442 74 38.6375V37.3781C74 36.0714 74.8975 35.0078 76 35.0078C77.1025 35.0078 78 36.0714 78 37.3781V38.6375C78 39.9442 77.1025 41.0078 76 41.0078Z" fill="#3A3A39"/>
<path fill-rule="evenodd" clip-rule="evenodd" d="M223.49 82.0078H216.51C216.228 82.0078 216 81.7935 216 81.5305V33.79L216.047 33.5899L219.537 28.2854C219.719 27.9153 220.281 27.9153 220.463 28.2854L223.954 33.5899L224 33.79V81.5305C224 81.7935 223.772 82.0078 223.49 82.0078Z" fill="#FFFFFE"/>
<path fill-rule="evenodd" clip-rule="evenodd" d="M216 77.0078H224V35.0078H216V77.0078Z" fill="#EDC034"/>
<path fill-rule="evenodd" clip-rule="evenodd" d="M217.227 80.8799H222.773V34.271L219.997 29.8663L217.227 34.2695V80.8799ZM225 83.0078H215V33.678L218.778 27.6873C218.95 27.3142 219.452 27.0078 220 27.0078C220.548 27.0078 221.05 27.3142 221.278 27.7895L225 33.678V83.0078Z" fill="#3A3A39"/>
<path fill-rule="evenodd" clip-rule="evenodd" d="M216 36.0078H224V34.0078H216V36.0078Z" fill="#3A3A39"/>
<path fill-rule="evenodd" clip-rule="evenodd" d="M216 78.0078H225V76.0078H216V78.0078Z" fill="#3A3A39"/>
<path fill-rule="evenodd" clip-rule="evenodd" d="M225.511 78.0078L225 75.9344C234.352 73.5873 240.882 65.144 240.882 55.4009C240.882 46.0042 234.637 37.6392 225.695 35.0613L226.276 33.0078C236.123 35.8451 243 45.0537 243 55.4009C243 66.1287 235.808 75.4242 225.511 78.0078Z" fill="#3A3A39"/>
<path fill-rule="evenodd" clip-rule="evenodd" d="M214.458 78.0078C204.178 75.3327 197 66.068 197 55.4786C197 44.9861 204.098 35.7456 214.262 33.0078L214.823 35.069C205.593 37.5561 199.146 45.949 199.146 55.4786C199.146 65.0965 205.666 73.5122 215 75.9409L214.458 78.0078Z" fill="#3A3A39"/>
<path fill-rule="evenodd" clip-rule="evenodd" d="M228.936 77.0078L227 75.8691C230.687 70.3186 232.717 63.0593 232.717 55.429C232.717 47.8618 230.722 40.6569 227.102 35.138L229.044 34.0078C232.885 39.8619 235 47.4693 235 55.429C235 63.4575 232.847 71.1193 228.936 77.0078Z" fill="#3A3A39"/>
<path fill-rule="evenodd" clip-rule="evenodd" d="M212.067 77.0078C208.154 71.1222 206 63.4589 206 55.429C206 47.4765 208.116 39.8677 211.959 34.0078L213.9 35.138C210.278 40.6626 208.282 47.8689 208.282 55.429C208.282 63.0607 210.313 70.32 214 75.8691L212.067 77.0078Z" fill="#3A3A39"/>
<path fill-rule="evenodd" clip-rule="evenodd" d="M226 57.0078H242V55.0078H226V57.0078Z" fill="#3A3A39"/>
<path fill-rule="evenodd" clip-rule="evenodd" d="M227 46.0078H240V44.0078H227V46.0078Z" fill="#3A3A39"/>
<path fill-rule="evenodd" clip-rule="evenodd" d="M198 57.0078H214V55.0078H198V57.0078Z" fill="#3A3A39"/>
<path fill-rule="evenodd" clip-rule="evenodd" d="M200 46.0078H213V44.0078H200V46.0078Z" fill="#3A3A39"/>
<path fill-rule="evenodd" clip-rule="evenodd" d="M227 68.0078H239V66.0078H227V68.0078Z" fill="#3A3A39"/>
<path fill-rule="evenodd" clip-rule="evenodd" d="M201 68.0078H213V66.0078H201V68.0078Z" fill="#3A3A39"/>
<path fill-rule="evenodd" clip-rule="evenodd" d="M195.818 79H88.8175C87.9927 79 87.3179 78.3343 87.3179 77.5206V2.47943C87.3179 1.66574 87.9927 1 88.8175 1H195.818C196.643 1 197.318 1.66574 197.318 2.47943V77.5206C197.318 78.3343 196.643 79 195.818 79Z" fill="#515251"/>
<path fill-rule="evenodd" clip-rule="evenodd" d="M88.8001 2.23713C88.5967 2.23713 88.4262 2.40861 88.4262 2.60991V78.2451C88.4262 78.4479 88.5967 78.6179 88.8001 78.6179H195.517C195.719 78.6179 195.891 78.4479 195.891 78.2451V2.60991C195.891 2.40861 195.719 2.23713 195.517 2.23713H88.8001ZM195.518 80.8541H88.8005C87.3572 80.8541 86.1831 79.6836 86.1831 78.2447V2.60945C86.1831 1.17052 87.3572 0 88.8005 0H195.518C196.959 0 198.135 1.17052 198.135 2.60945V78.2447C198.135 79.6836 196.959 80.8541 195.518 80.8541Z" fill="#3A3A39"/>
<path fill-rule="evenodd" clip-rule="evenodd" d="M92.3179 70H191.318V7H92.3179V70Z" fill="#FFFFFE"/>
<path fill-rule="evenodd" clip-rule="evenodd" d="M195.685 84H87.3306C84.7291 84 82.5119 81.9428 82.0897 79.1404L81.3179 74H131.538L133.46 77.0122H147.336L149.413 74H202.318L201.646 78.4696C201.168 81.6586 198.643 84 195.685 84Z" fill="#FFFFFE"/>
<path fill-rule="evenodd" clip-rule="evenodd" d="M83.6422 75.8633L84.1915 79.2439C84.5208 81.2671 86.2362 82.7362 88.2689 82.7362H195.436C197.825 82.7362 199.839 81.0089 200.224 78.6324L200.675 75.8633H150.232L148.176 78.6142H133.305L131.404 75.8633H83.6422ZM195.435 85.0002H88.2686C85.1297 85.0002 82.4834 82.7339 81.9759 79.6084L81 73.5977H132.578L134.477 76.3486H147.056L149.112 73.5977H203.318L202.441 78.9969C201.876 82.4757 198.929 85.0002 195.435 85.0002Z" fill="#3A3A39"/>
<path fill-rule="evenodd" clip-rule="evenodd" d="M144.751 23.8412C146.182 23.8412 147.342 22.6809 147.342 21.2497C147.342 19.8184 146.182 18.6582 144.751 18.6582C143.319 18.6582 142.159 19.8184 142.159 21.2497C142.159 22.6809 143.319 23.8412 144.751 23.8412Z" fill="#3A3A39"/>
<path fill-rule="evenodd" clip-rule="evenodd" d="M146.823 36.2787C148.255 36.2787 149.415 35.1184 149.415 33.6872C149.415 32.2559 148.255 31.0957 146.823 31.0957C145.392 31.0957 144.232 32.2559 144.232 33.6872C144.232 35.1184 145.392 36.2787 146.823 36.2787Z" fill="#3A3A39"/>
<path fill-rule="evenodd" clip-rule="evenodd" d="M159.262 41.4623C160.694 41.4623 161.854 40.302 161.854 38.8708C161.854 37.4395 160.694 36.2793 159.262 36.2793C157.831 36.2793 156.671 37.4395 156.671 38.8708C156.671 40.302 157.831 41.4623 159.262 41.4623Z" fill="#3A3A39"/>
<path fill-rule="evenodd" clip-rule="evenodd" d="M160.299 47.681C161.731 47.681 162.891 46.5208 162.891 45.0895C162.891 43.6583 161.731 42.498 160.299 42.498C158.868 42.498 157.708 43.6583 157.708 45.0895C157.708 46.5208 158.868 47.681 160.299 47.681Z" fill="#3A3A39"/>
<path fill-rule="evenodd" clip-rule="evenodd" d="M146.823 45.6087C148.255 45.6087 149.415 44.4485 149.415 43.0173C149.415 41.586 148.255 40.4258 146.823 40.4258C145.392 40.4258 144.232 41.586 144.232 43.0173C144.232 44.4485 145.392 45.6087 146.823 45.6087Z" fill="#3A3A39"/>
<path fill-rule="evenodd" clip-rule="evenodd" d="M152.007 59.0833C153.438 59.0833 154.598 57.9231 154.598 56.4919C154.598 55.0606 153.438 53.9004 152.007 53.9004C150.575 53.9004 149.415 55.0606 149.415 56.4919C149.415 57.9231 150.575 59.0833 152.007 59.0833Z" fill="#3A3A39"/>
<path fill-rule="evenodd" clip-rule="evenodd" d="M129.202 55.9759C130.633 55.9759 131.793 54.8157 131.793 53.3844C131.793 51.9532 130.633 50.793 129.202 50.793C127.771 50.793 126.61 51.9532 126.61 53.3844C126.61 54.8157 127.771 55.9759 129.202 55.9759Z" fill="#3A3A39"/>
<path fill-rule="evenodd" clip-rule="evenodd" d="M122.982 38.3529C124.413 38.3529 125.574 37.1926 125.574 35.7614C125.574 34.3302 124.413 33.1699 122.982 33.1699C121.551 33.1699 120.391 34.3302 120.391 35.7614C120.391 37.1926 121.551 38.3529 122.982 38.3529Z" fill="#3A3A39"/>
<path fill-rule="evenodd" clip-rule="evenodd" d="M150.97 18.6576C152.401 18.6576 153.561 17.4973 153.561 16.0661C153.561 14.6349 152.401 13.4746 150.97 13.4746C149.539 13.4746 148.378 14.6349 148.378 16.0661C148.378 17.4973 149.539 18.6576 150.97 18.6576Z" fill="#3A3A39"/>
<path d="M138.013 15.5469V24.7189L132.83 30.216L136.976 34.6138V47.6812" stroke="#3A3A39" stroke-width="1.5"/>
<path d="M121.546 24.877L131.793 35.1155V47.682H124.812V41.9359H117.281" stroke="#3A3A39" stroke-width="1.5"/>
<path d="M151.488 55.4564L146.762 50.793H135.939V56.9664H142.31L148.66 63.2321" stroke="#3A3A39" stroke-width="1.5"/>
<path d="M158.744 57.0116L153.161 51.2779V41.9702L150.452 39.1873L153.435 36.1234V26.3503V17.6211" stroke="#3A3A39" stroke-width="1.5"/>
<path d="M146.305 33.1702V25.9141H153.561" stroke="#3A3A39" stroke-width="1.5"/>
<path d="M164.964 30.0605H158.745V38.3533" stroke="#3A3A39" stroke-width="1.5"/>
<path d="M163.928 49.7557L159.781 45.6094" stroke="#3A3A39" stroke-width="1.5"/>
<path d="M146.305 42.4979L150.452 38.3516" stroke="#3A3A39" stroke-width="1.5"/>
<path d="M144.232 14.5117V20.7313" stroke="#3A3A39" stroke-width="1.5"/>
<path d="M122.464 35.2421C122.062 34.7888 118.317 31.0957 118.317 31.0957" stroke="#3A3A39" stroke-width="1.5"/>
<path d="M129.72 53.9025C129.318 54.3558 125.574 58.0488 125.574 58.0488" stroke="#3A3A39" stroke-width="1.5"/>
<path fill-rule="evenodd" clip-rule="evenodd" d="M142.159 64.2681C155.899 64.2681 167.037 53.1298 167.037 39.3899C167.037 25.6501 155.899 14.5117 142.159 14.5117C128.419 14.5117 117.281 25.6501 117.281 39.3899C117.281 53.1298 128.419 64.2681 142.159 64.2681Z" stroke="#3A3A39" stroke-width="2"/>
<path fill-rule="evenodd" clip-rule="evenodd" d="M11 84.0078H247V82.0078H11V84.0078Z" fill="#3A3A39"/>
<path fill-rule="evenodd" clip-rule="evenodd" d="M4 84.0078H8V82.0078H4V84.0078Z" fill="#3A3A39"/>
<path fill-rule="evenodd" clip-rule="evenodd" d="M250 84.0078H259V82.0078H250V84.0078Z" fill="#3A3A39"/>
</g>
<defs>
<filter id="filter0_d" x="0" y="0" width="263" height="93.0002" filterUnits="userSpaceOnUse" color-interpolation-filters="sRGB">
<feFlood flood-opacity="0" result="BackgroundImageFix"/>
<feColorMatrix in="SourceAlpha" type="matrix" values="0 0 0 0 0 0 0 0 0 0 0 0 0 0 0 0 0 0 127 0"/>
<feOffset dy="4"/>
<feGaussianBlur stdDeviation="2"/>
<feColorMatrix type="matrix" values="0 0 0 0 0 0 0 0 0 0 0 0 0 0 0 0 0 0 0.25 0"/>
<feBlend mode="normal" in2="BackgroundImageFix" result="effect1_dropShadow"/>
<feBlend mode="normal" in="SourceGraphic" in2="effect1_dropShadow" result="shape"/>
</filter>
</defs>
</svg>
