<svg width="205" height="205" viewBox="0 0 205 205" fill="none" xmlns="http://www.w3.org/2000/svg">
<path fill-rule="evenodd" clip-rule="evenodd" d="M102.295 204.262C158.701 204.262 204.426 158.537 204.426 102.131C204.426 45.7257 158.701 0 102.295 0C45.8897 0 0.164062 45.7257 0.164062 102.131C0.164062 158.537 45.8897 204.262 102.295 204.262Z" fill="white"/>
<path fill-rule="evenodd" clip-rule="evenodd" d="M112.508 70.0325C112.508 75.6742 107.937 80.2456 102.295 80.2456C96.6534 80.2456 92.082 75.6742 92.082 70.0325C92.082 64.3907 96.6534 59.8193 102.295 59.8193C107.937 59.8193 112.508 64.3907 112.508 70.0325Z" stroke="#EDC034" stroke-width="2"/>
<path fill-rule="evenodd" clip-rule="evenodd" d="M138.77 75.1398C138.77 78.764 135.829 81.7054 132.205 81.7054C128.581 81.7054 125.639 78.764 125.639 75.1398C125.639 71.5156 128.581 68.5742 132.205 68.5742C135.829 68.5742 138.77 71.5156 138.77 75.1398Z" stroke="#274548" stroke-width="2"/>
<path fill-rule="evenodd" clip-rule="evenodd" d="M80.41 75.1398C80.41 78.764 77.4686 81.7054 73.8444 81.7054C70.2202 81.7054 67.2788 78.764 67.2788 75.1398C67.2788 71.5156 70.2202 68.5742 73.8444 68.5742C77.4686 68.5742 80.41 71.5156 80.41 75.1398Z" stroke="#274548" stroke-width="2"/>
<path d="M123.229 131.312C139.339 132.679 150.443 135.575 150.443 138.918C150.443 143.578 128.889 147.361 102.295 147.361C75.705 147.361 54.1475 143.578 54.1475 138.918C54.1475 135.583 65.1795 132.7 81.1854 131.328" stroke="#EDC034" stroke-width="2" stroke-linecap="round" stroke-linejoin="round"/>
<path fill-rule="evenodd" clip-rule="evenodd" d="M112.508 126.933H92.082V99.5364C92.082 93.7155 96.6534 88.999 102.295 88.999C107.937 88.999 112.508 93.7155 112.508 99.5364V126.933Z" stroke="#EDC034" stroke-width="2"/>
<path fill-rule="evenodd" clip-rule="evenodd" d="M138.77 118.179H125.639V95.252C125.639 91.8003 128.581 88.999 132.205 88.999C135.829 88.999 138.77 91.8003 138.77 95.252V118.179Z" stroke="#274548" stroke-width="2"/>
<path fill-rule="evenodd" clip-rule="evenodd" d="M80.41 118.179H67.2788V95.252C67.2788 91.8003 70.2202 88.999 73.8444 88.999C77.4686 88.999 80.41 91.8003 80.41 95.252V118.179Z" stroke="#274548" stroke-width="2"/>
</svg>
