<svg width="259" height="152" viewBox="0 0 259 152" fill="none" xmlns="http://www.w3.org/2000/svg">
<g filter="url(#filter0_d)">
<path fill-rule="evenodd" clip-rule="evenodd" d="M188 100H201V92H188V100Z" fill="#FFFFFE"/>
<path fill-rule="evenodd" clip-rule="evenodd" d="M206 143H185V98.0068C185 96.8988 185.889 96 186.986 96H204.016C205.111 96 206 96.8988 206 98.0068V143Z" fill="#FFFFFE"/>
<path fill-rule="evenodd" clip-rule="evenodd" d="M188 140H190V102H188V140Z" fill="#3A3A39"/>
<path fill-rule="evenodd" clip-rule="evenodd" d="M200 140H202V102H200V140Z" fill="#3378B0"/>
<path fill-rule="evenodd" clip-rule="evenodd" d="M227 92.747V139.253C227 140.77 225.787 142 224.29 142H202.71C201.213 142 200 140.77 200 139.253V92.747C200 91.2298 201.213 90 202.71 90H224.29C225.787 90 227 91.2298 227 92.747Z" fill="#9FE2DD"/>
<path fill-rule="evenodd" clip-rule="evenodd" d="M216.289 142H202.959C200.775 142 199 140.198 199 137.984V92.0158C199 89.8017 200.775 88 202.959 88H224.041C226.225 88 228 89.8017 228 92.0158V120.686H225.912V92.0158C225.912 90.9695 225.073 90.118 224.041 90.118H202.959C201.927 90.118 201.088 90.9695 201.088 92.0158V137.984C201.088 139.031 201.927 139.882 202.959 139.882H216.289V142Z" fill="#3A3A39"/>
<path fill-rule="evenodd" clip-rule="evenodd" d="M222.998 116.689C222.893 121.935 218.556 126.102 213.311 125.998C208.066 125.893 203.898 121.556 204.002 116.311C204.107 111.065 208.444 106.898 213.689 107.002C218.935 107.107 223.103 111.444 222.998 116.689Z" fill="#FFFFFE"/>
<path fill-rule="evenodd" clip-rule="evenodd" d="M216 101.551C215.971 102.93 214.83 104.028 213.45 103.999C212.069 103.972 210.973 102.831 211 101.451C211.028 100.07 212.169 98.9734 213.55 99.0005C214.929 99.0276 216.027 100.169 216 101.551Z" fill="#FFFFFE"/>
<path fill-rule="evenodd" clip-rule="evenodd" d="M216 131.55C215.971 132.931 214.83 134.027 213.45 134C212.069 133.972 210.973 132.831 211 131.45C211.028 130.071 212.169 128.973 213.55 129C214.929 129.029 216.027 130.17 216 131.55Z" fill="#FFFFFE"/>
<path fill-rule="evenodd" clip-rule="evenodd" d="M217 120H214.901V114.991C214.901 114.591 214.597 114.264 214.226 114.264C213.853 114.264 213.549 114.591 213.549 114.991V116.994C213.549 118.643 212.305 119.986 210.777 119.986C209.246 119.986 208 118.643 208 116.994V112.131H210.099V116.994C210.099 117.395 210.403 117.723 210.777 117.723C211.147 117.723 211.45 117.395 211.45 116.994V114.991C211.45 113.342 212.695 112 214.226 112C215.754 112 217 113.342 217 114.991V120Z" fill="#3A3A39"/>
<path fill-rule="evenodd" clip-rule="evenodd" d="M206 117H219V115H206V117Z" fill="#3A3A39"/>
<path fill-rule="evenodd" clip-rule="evenodd" d="M223 104H220.871V99.9028C218.385 99.4686 216.445 97.5538 216.007 95.1011H208.992C208.555 97.558 206.618 99.4686 204.129 99.9028V103.256H202V99.3257C202 98.5623 202.589 97.9418 203.371 97.8816C205.254 97.7373 206.789 96.2287 206.944 94.3713C207.011 93.5883 207.648 93 208.429 93H216.57C217.351 93 217.988 93.5883 218.054 94.3685C218.211 96.2441 219.701 97.7191 221.598 97.8802C222.398 97.9474 223 98.5875 223 99.365V104Z" fill="#3A3A39"/>
<path fill-rule="evenodd" clip-rule="evenodd" d="M216 140H207.226C206.471 140 205.853 139.371 205.788 138.534C205.636 136.504 204.18 134.921 202.326 134.764C201.57 134.7 201 134.034 201 133.216V129H203.062V132.597C205.471 133.061 207.347 135.11 207.772 137.747H216V140Z" fill="#3A3A39"/>
<path fill-rule="evenodd" clip-rule="evenodd" d="M218 142V137.69C218 137.309 218.343 137 218.766 137H237.234C237.657 137 238 137.309 238 137.69V142H218Z" fill="#EDC034"/>
<path fill-rule="evenodd" clip-rule="evenodd" d="M239 143H236.83V138.306H219.17V143H217V137.96C217 136.879 217.827 136 218.844 136H237.156C238.173 136 239 136.879 239 137.96V143Z" fill="#3A3A39"/>
<path fill-rule="evenodd" clip-rule="evenodd" d="M238.432 138H219.568C219.254 138 219 137.719 219 137.372V131.629C219 131.281 219.254 131 219.568 131H238.432C238.746 131 239 131.281 239 131.629V137.372C239 137.719 238.746 138 238.432 138Z" fill="#EDC034"/>
<path fill-rule="evenodd" clip-rule="evenodd" d="M220.17 136.684H237.83V132.316H220.17V136.684ZM238.354 139H219.648C218.739 139 218 138.211 218 137.241V131.757C218 130.788 218.739 130 219.648 130H238.354C239.261 130 240 130.788 240 131.757V137.241C240 138.211 239.261 139 238.354 139Z" fill="#3A3A39"/>
<path fill-rule="evenodd" clip-rule="evenodd" d="M237.432 131H218.568C218.255 131 218 130.719 218 130.372V124.629C218 124.281 218.255 124 218.568 124H237.432C237.746 124 238 124.281 238 124.629V130.372C238 130.719 237.746 131 237.432 131Z" fill="#EDC034"/>
<path fill-rule="evenodd" clip-rule="evenodd" d="M219.17 129.684H236.83V125.316H219.17V129.684ZM237.352 132H218.646C217.739 132 217 131.211 217 130.241V124.759C217 123.789 217.739 123 218.646 123H237.352C238.261 123 239 123.789 239 124.759V130.241C239 131.211 238.261 132 237.352 132Z" fill="#3A3A39"/>
<path fill-rule="evenodd" clip-rule="evenodd" d="M175.323 143H69.6766C63.8044 143 59 138.143 59 132.207V131.793C59 125.857 63.8044 121 69.6766 121H175.323C181.196 121 186 125.857 186 131.793V132.207C186 138.143 181.196 143 175.323 143Z" fill="#FFFFFE"/>
<path fill-rule="evenodd" clip-rule="evenodd" d="M103 104.999C103 114.389 95.3894 122 86 122C76.612 122 69 114.389 69 104.999C69 95.6109 76.612 88 86 88C95.3894 88 103 95.6109 103 104.999Z" fill="#FFFFFE"/>
<path fill-rule="evenodd" clip-rule="evenodd" d="M74 106.501C74 110.09 71.0901 113 67.5007 113C63.9099 113 61 110.09 61 106.501C61 102.91 63.9099 100 67.5007 100C71.0901 100 74 102.91 74 106.501Z" fill="#FFFFFE"/>
<path fill-rule="evenodd" clip-rule="evenodd" d="M72 114.999C72 120.523 67.5226 125 62 125C56.4774 125 52 120.523 52 114.999C52 109.477 56.4774 105 62 105C67.5226 105 72 109.477 72 114.999Z" fill="#FFFFFE"/>
<path fill-rule="evenodd" clip-rule="evenodd" d="M72 130C72 137.18 66.1801 143 59 143C51.8213 143 46 137.18 46 130C46 122.82 51.8213 117 59 117C66.1801 117 72 122.82 72 130Z" fill="#FFFFFE"/>
<path fill-rule="evenodd" clip-rule="evenodd" d="M59 144C51.2819 144 45 137.588 45 129.706C45 125.053 47.2305 120.677 50.9658 118L52.1699 119.755C48.994 122.029 47.0977 125.75 47.0977 129.706C47.0977 136.407 52.4384 141.858 59 141.858V144Z" fill="#3A3A39"/>
<path fill-rule="evenodd" clip-rule="evenodd" d="M106 117.5C106 120.538 103.538 123 100.501 123C97.4624 123 95 120.538 95 117.5C95 114.463 97.4624 112 100.501 112C103.538 112 106 114.463 106 117.5Z" fill="#FFFFFE"/>
<path fill-rule="evenodd" clip-rule="evenodd" d="M173 103C173 111.285 166.285 118 157.999 118C149.715 118 143 111.285 143 103C143 94.7165 149.715 88 157.999 88C166.285 88 173 94.7165 173 103Z" fill="#FFFFFE"/>
<path fill-rule="evenodd" clip-rule="evenodd" d="M176.966 112.999C176.467 118.538 172.497 123 166.984 123C161.47 123 157 118.522 157 112.999C157 107.476 161.47 103 166.984 103C172.497 103 177.462 107.5 176.966 112.999Z" fill="#FFFFFE"/>
<path fill-rule="evenodd" clip-rule="evenodd" d="M167.966 118.999C167.465 124.538 163.496 129 157.982 129C152.469 129 148 124.522 148 118.999C148 113.476 152.469 109 157.982 109C163.496 109 168.462 113.5 167.966 118.999Z" fill="#FFFFFE"/>
<path fill-rule="evenodd" clip-rule="evenodd" d="M99.9365 119.001C99.012 124.538 91.6686 129 81.4682 129C71.2693 129 63 124.524 63 119.001C63 113.478 71.2693 109 81.4682 109C91.6686 109 100.855 113.5 99.9365 119.001Z" fill="#FFFFFE"/>
<path fill-rule="evenodd" clip-rule="evenodd" d="M195.952 114.001C195.253 121.755 189.695 128 181.977 128C174.258 128 168 121.733 168 114.001C168 106.269 174.258 100 181.977 100C189.695 100 196.648 106.3 195.952 114.001Z" fill="#FFFFFE"/>
<path fill-rule="evenodd" clip-rule="evenodd" d="M191.954 129.5C191.279 136.976 185.919 143 178.477 143C171.034 143 165 136.955 165 129.5C165 122.045 171.034 116 178.477 116C185.919 116 192.624 122.074 191.954 129.5Z" fill="#FFFFFE"/>
<path fill-rule="evenodd" clip-rule="evenodd" d="M154 113.499C154 118.194 150.194 122 145.499 122C140.805 122 137 118.194 137 113.499C137 108.805 140.805 105 145.499 105C150.194 105 154 108.805 154 113.499Z" fill="#FFFFFE"/>
<path fill-rule="evenodd" clip-rule="evenodd" d="M144 122.5C144 125.538 141.537 128 138.5 128C135.463 128 133 125.538 133 122.5C133 119.463 135.463 117 138.5 117C141.537 117 144 119.463 144 122.5Z" fill="#FFFFFE"/>
<path fill-rule="evenodd" clip-rule="evenodd" d="M133.379 123H131C131 119.14 134.142 116 138 116V118.379C135.453 118.379 133.379 120.452 133.379 123Z" fill="#3A3A39"/>
<path fill-rule="evenodd" clip-rule="evenodd" d="M122 125C122 128.313 117.299 131 111.499 131C105.701 131 101 128.313 101 125C101 121.687 105.701 119 111.499 119C117.299 119 122 121.687 122 125Z" fill="#FFFFFE"/>
<path fill-rule="evenodd" clip-rule="evenodd" d="M181 100.493C181 104.304 174.71 114.468 174.71 109.795C174.71 105.986 168 106.707 168 102.898C168 99.0881 171.004 96 174.71 96C178.417 96 181 96.6844 181 100.493Z" fill="#FFFFFE"/>
<path fill-rule="evenodd" clip-rule="evenodd" d="M181.978 100C180.98 98.1141 178.773 96.8973 176.354 96.8973C175.499 96.8973 174.667 97.044 173.888 97.3349L173 95.5958C174.062 95.2011 175.191 95 176.354 95C179.643 95 182.645 96.6557 184 99.2183L181.978 100Z" fill="#3A3A39"/>
<path fill-rule="evenodd" clip-rule="evenodd" d="M146.832 114C143.716 111.013 142 107.041 142 102.815C142 98.5884 143.716 94.6173 146.832 91.6318C149.948 88.6448 154.091 87 158.499 87C162.907 87 167.051 88.6448 170.167 91.6318C173.283 94.6187 175 98.5898 175 102.815H172.837C172.837 99.1454 171.345 95.6941 168.637 93.0983C165.929 90.5025 162.328 89.0733 158.499 89.0733C154.669 89.0733 151.068 90.5025 148.362 93.0983C145.654 95.6927 144.163 99.1441 144.163 102.815C144.163 106.486 145.654 109.938 148.362 112.533L146.832 114Z" fill="#3A3A39"/>
<path fill-rule="evenodd" clip-rule="evenodd" d="M113 69H130V61H113V69Z" fill="#FFFFFE"/>
<path fill-rule="evenodd" clip-rule="evenodd" d="M114.151 67.7758H129.849V62.2242H114.151V67.7758ZM112 70H132V60H112V70Z" fill="#3A3A39"/>
<path fill-rule="evenodd" clip-rule="evenodd" d="M94 61H110V25L104.094 33.2515C102.396 35.625 100.399 37.7373 98.3475 39.7922C95.6004 42.5459 94 46.3622 94 50.4087V61Z" fill="#9FE2DD"/>
<path fill-rule="evenodd" clip-rule="evenodd" d="M110 61H106V34.5071C106.01 34.4929 106.021 34.48 106.031 34.4657L110 29V61Z" fill="#CFF0EE"/>
<path fill-rule="evenodd" clip-rule="evenodd" d="M147 62H131V26L136.904 34.2515C138.604 36.625 140.6 38.7373 142.651 40.7922C145.4 43.5459 147 47.3622 147 51.4087V62Z" fill="#9FE2DD"/>
<path fill-rule="evenodd" clip-rule="evenodd" d="M136 34L132 28.0571V26L136 31.9414V34Z" fill="#B3B5B3"/>
<path fill-rule="evenodd" clip-rule="evenodd" d="M136 62H132V29L136 34.7015V62Z" fill="#CFF0EE"/>
<path fill-rule="evenodd" clip-rule="evenodd" d="M95.1467 59.9076H109.853V28.3512L105.571 33.9979C103.691 36.4739 101.494 38.6473 99.4016 40.6267C96.6981 43.1822 95.1467 46.7547 95.1467 50.4276V59.9076ZM112 62H93V50.4275C93 46.1925 94.7889 42.0718 97.906 39.1243C99.9354 37.2063 102.058 35.1083 103.845 32.7522L112 22V62Z" fill="#3A3A39"/>
<path fill-rule="evenodd" clip-rule="evenodd" d="M132.147 59.9075H146.853V50.4271C146.853 46.7541 145.304 43.183 142.599 40.6259C140.507 38.6478 138.312 36.4758 136.43 33.9955L132.147 28.3486V59.9075ZM149 62H130V22L138.157 32.7512C139.944 35.1115 142.067 37.2068 144.094 39.1249C147.213 42.0725 149 46.192 149 50.4271V62Z" fill="#3A3A39"/>
<path fill-rule="evenodd" clip-rule="evenodd" d="M132 65H109V17.56C109 12.0237 111.576 6.80091 115.977 3.41749L118.031 1.83809C119.484 0.720638 121.514 0.720638 122.969 1.83809L125.209 3.56158C129.492 6.85459 132 11.9375 132 17.3241V65Z" fill="#FFFFFE"/>
<path fill-rule="evenodd" clip-rule="evenodd" d="M115 3.83127L117.67 1.98263C119.559 0.672457 122.197 0.672457 124.087 1.98263L127 4L115 3.83127Z" fill="#515251"/>
<path fill-rule="evenodd" clip-rule="evenodd" d="M109 17C109 11.6507 111.571 6.6045 115.964 3.33544L118.014 1.80942C118.739 1.27026 119.609 1 120.477 1C121.347 1 122.215 1.27026 122.942 1.80942C122.215 1.27026 121.347 1 120.477 1C119.609 1 118.739 1.27026 118.014 1.80942L115.964 3.33544C111.571 6.6045 109 11.6507 109 17ZM123 1.8531L122.942 1.80942L123 1.8531Z" fill="#BEBEB9"/>
<path fill-rule="evenodd" clip-rule="evenodd" d="M114.044 65H109V17.5598C109 12.0234 111.571 6.80059 115.964 3.41715L118.014 1.83774C118.739 1.27972 119.609 1 120.477 1C121.347 1 122.215 1.27972 122.942 1.83774L123 1.88294L122.759 2.06801C122.079 1.77558 121.353 1.62866 120.626 1.62866C119.466 1.62866 118.307 2.00161 117.339 2.74752L114.605 4.85246L119.29 4.92592C115.953 8.25427 114.044 12.7905 114.044 17.5598V65Z" fill="#BEBEB9"/>
<path fill-rule="evenodd" clip-rule="evenodd" d="M120.171 4L115 3.93316L118.018 2.01799C119.086 1.33933 120.365 1 121.645 1C122.447 1 123.249 1.13368 124 1.39974L122.067 2.62725C121.397 3.05398 120.763 3.51285 120.171 4Z" fill="#4A4A49"/>
<path fill-rule="evenodd" clip-rule="evenodd" d="M128 28H125.844C125.844 25.3294 123.671 23.1561 121.001 23.1561C118.329 23.1561 116.156 25.3294 116.156 28H114C114 24.1407 117.14 21 121.001 21C124.86 21 128 24.1407 128 28Z" fill="#3A3A39"/>
<path fill-rule="evenodd" clip-rule="evenodd" d="M110.118 63.8848H130.882V17.3535C130.882 12.339 128.51 7.51619 124.536 4.45048L122.31 2.73149C121.242 1.90795 119.757 1.90795 118.692 2.73149L116.647 4.30806C112.559 7.4626 110.118 12.4264 110.118 17.5876V63.8848ZM133 66H108V17.5876C108 11.7749 110.748 6.1864 115.352 2.63278L117.397 1.05762C119.223 -0.352542 121.776 -0.352542 123.604 1.05762L125.831 2.77662C130.321 6.23998 133 11.6889 133 17.3535V66Z" fill="#3A3A39"/>
<path fill-rule="evenodd" clip-rule="evenodd" d="M146 125C140.486 125 136 120.439 136 114.833C136 110.219 139.062 106.176 143.445 105L143.99 107.099C140.541 108.023 138.134 111.202 138.134 114.833C138.134 119.243 141.662 122.83 146 122.83V125Z" fill="#3A3A39"/>
<path fill-rule="evenodd" clip-rule="evenodd" d="M94.9172 120L93.8454 118.159C98.7765 115.394 101.839 110.222 101.839 104.657C101.839 96.0898 94.7342 89.1198 86.0014 89.1198C77.2672 89.1198 70.1609 96.0898 70.1609 104.657H68C68 94.9211 76.0759 87 86.0014 87C95.9256 87 104 94.9211 104 104.657C104 110.981 100.52 116.858 94.9172 120Z" fill="#3A3A39"/>
<path fill-rule="evenodd" clip-rule="evenodd" d="M65.8565 102L65 99.9729C66.5112 98.9425 68.3571 98.7171 70 99.3611L69.4661 101.56C68.2689 101.092 66.9546 101.25 65.8565 102Z" fill="#3A3A39"/>
<path fill-rule="evenodd" clip-rule="evenodd" d="M101 124V121.897C103.61 121.897 105.736 119.925 105.736 117.499C105.736 115.075 103.61 113.103 101 113.103V111C104.86 111 108 113.916 108 117.499C108 121.084 104.86 124 101 124Z" fill="#3A3A39"/>
<path fill-rule="evenodd" clip-rule="evenodd" d="M143 131H104L115.288 118.224V71H127.376L126.856 114.111C126.823 116.703 127.996 119.162 130.024 120.764L143 131Z" fill="#FFFFFE"/>
<path fill-rule="evenodd" clip-rule="evenodd" d="M133 122H131.742C128.57 121.969 126 119.351 126 116.166V71H128.117V116.166C128.117 118.186 129.748 119.846 131.754 119.866H133V122Z" fill="#3A3A39"/>
<path fill-rule="evenodd" clip-rule="evenodd" d="M110.462 121H106V118.858H110.462C112.302 118.858 113.799 117.402 113.799 115.611V71H116V115.611C116 118.583 113.516 121 110.462 121Z" fill="#3A3A39"/>
<path fill-rule="evenodd" clip-rule="evenodd" d="M108 141C107.989 139.852 108.184 138.723 108.577 137.645C108.969 136.569 109.544 135.601 110.282 134.767C111.05 133.901 111.958 133.219 112.98 132.743C114.004 132.262 115.087 132.012 116.197 132C117.284 132.009 118.32 132.197 119.32 132.617C120.324 133.044 121.225 133.659 122 134.45L120.509 136.138C119.935 135.553 119.268 135.097 118.528 134.782C117.788 134.471 116.988 134.309 116.22 134.326C115.402 134.336 114.602 134.52 113.844 134.875C113.089 135.227 112.417 135.732 111.851 136.37C111.308 136.985 110.884 137.701 110.594 138.495C110.301 139.294 110.158 140.128 110.166 140.975L108 141Z" fill="#3A3A39"/>
<path fill-rule="evenodd" clip-rule="evenodd" d="M73.0004 124C72.9903 122.849 73.1837 121.722 73.5779 120.645C73.972 119.567 74.5466 118.598 75.2858 117.765C76.0495 116.9 76.9576 116.221 77.9812 115.741C79.0048 115.262 80.0875 115.012 81.1977 115C82.282 115.002 83.3214 115.195 84.3205 115.617C85.321 116.041 86.2218 116.656 87 117.45L85.5087 119.138C84.9326 118.552 84.2671 118.096 83.5279 117.784C82.7887 117.471 81.9947 117.3 81.2208 117.326C80.4008 117.336 79.6024 117.52 78.8445 117.874C78.088 118.227 77.4181 118.73 76.8536 119.369C76.3094 119.985 75.8849 120.7 75.5933 121.495C75.3016 122.292 75.1587 123.127 75.1659 123.975L73.0004 124Z" fill="#3A3A39"/>
<path fill-rule="evenodd" clip-rule="evenodd" d="M165.46 119L163.366 118.253C163.651 117.526 163.784 116.76 163.76 115.978C163.738 115.198 163.559 114.44 163.229 113.724C162.891 112.987 162.405 112.331 161.784 111.774C161.164 111.214 160.447 110.79 159.654 110.507C158.889 110.234 158.084 110.098 157.262 110.132C156.444 110.152 155.648 110.322 154.896 110.636L154 108.683C155.017 108.26 156.093 108.03 157.2 108.002C158.307 107.982 159.397 108.142 160.435 108.512C161.51 108.894 162.481 109.47 163.32 110.224C164.157 110.977 164.817 111.868 165.278 112.867C165.724 113.839 165.965 114.864 165.997 115.918C166.028 116.975 165.847 118.013 165.46 119Z" fill="#3A3A39"/>
<path fill-rule="evenodd" clip-rule="evenodd" d="M119.073 133L117 132.689C117.145 131.507 117.496 130.386 118.045 129.359C118.589 128.335 119.304 127.452 120.17 126.74C121.004 126.057 121.936 125.566 122.938 125.279C123.947 124.996 124.976 124.928 126 125.078L125.721 127.378C124.966 127.263 124.203 127.314 123.458 127.526C122.718 127.738 122.029 128.101 121.413 128.607C120.776 129.13 120.248 129.78 119.846 130.541C119.439 131.302 119.179 132.128 119.073 133Z" fill="#3A3A39"/>
<path fill-rule="evenodd" clip-rule="evenodd" d="M166.072 135L164 134.689C164.142 133.511 164.493 132.391 165.044 131.36C165.592 130.33 166.307 129.45 167.169 128.742C168.001 128.06 168.932 127.568 169.937 127.28C170.947 126.993 171.975 126.928 173 127.079L172.721 129.377C171.966 129.263 171.203 129.312 170.457 129.527C169.714 129.741 169.026 130.103 168.414 130.605C167.776 131.128 167.25 131.779 166.844 132.54C166.438 133.302 166.178 134.129 166.072 135Z" fill="#3A3A39"/>
<path fill-rule="evenodd" clip-rule="evenodd" d="M142.256 143C141.096 142.667 140.04 142.143 139.119 141.442C138.191 140.738 137.449 139.897 136.918 138.945C136.403 138.026 136.102 137.039 136.022 136.012C135.94 134.988 136.086 133.974 136.452 133L138.713 133.645C138.442 134.364 138.334 135.113 138.394 135.871C138.453 136.631 138.676 137.359 139.057 138.038C139.45 138.742 139.996 139.362 140.682 139.882C141.364 140.401 142.142 140.786 143 141.032L142.256 143Z" fill="#3A3A39"/>
<path fill-rule="evenodd" clip-rule="evenodd" d="M54.0438 123C52.0807 120.896 51 118.102 51 115.131C51 108.992 55.6635 104 61.3967 104C63.8003 104 66.145 104.899 68 106.53L66.6949 108.228C65.2093 106.917 63.327 106.197 61.3967 106.197C56.7948 106.197 53.052 110.203 53.052 115.131C53.052 117.515 53.9207 119.759 55.4952 121.446L54.0438 123Z" fill="#3A3A39"/>
<path fill-rule="evenodd" clip-rule="evenodd" d="M188.069 128L187.126 126.089C191.388 124.015 194.333 119.432 194.816 114.126C195.098 111.024 194.021 107.976 191.783 105.541C188.527 102.001 183.211 100.343 178.502 101.475L178 99.407C183.446 98.1014 189.594 100.008 193.362 104.106C196.011 106.99 197.285 110.615 196.947 114.316C196.397 120.358 192.997 125.6 188.069 128Z" fill="#3A3A39"/>
<path fill-rule="evenodd" clip-rule="evenodd" d="M179 144V141.815C185.743 141.815 191.125 136.322 191.8 128.751C191.923 127.36 191.781 125.979 191.374 124.648L193.432 124C193.925 125.606 194.097 127.271 193.948 128.949C193.171 137.669 186.884 144 179 144Z" fill="#3A3A39"/>
<path fill-rule="evenodd" clip-rule="evenodd" d="M63.8953 111H26.0073C24.8984 111 24 111.912 24 113.037V143H61.9304C64.1778 143 66 141.15 66 138.866V113.137C66 111.957 65.0578 111 63.8953 111Z" fill="#9FE2DD"/>
<path fill-rule="evenodd" clip-rule="evenodd" d="M63.555 144H23V112.715C23 111.218 24.2276 110 25.7376 110H50.9924V112.142H25.7376C25.4206 112.142 25.1612 112.399 25.1612 112.715V141.858H63.555C64.8143 141.858 65.8388 140.842 65.8388 139.594V112.796C65.8388 112.435 65.5434 112.142 65.1789 112.142H62.5407V110H65.1789C66.735 110 68 111.254 68 112.796V139.594C68 142.024 66.0059 144 63.555 144Z" fill="#3A3A39"/>
<path fill-rule="evenodd" clip-rule="evenodd" d="M51.5675 99L60 107.373V136.604C60 137.927 58.9194 139 57.5883 139H32.4117C31.0806 139 30 137.927 30 136.604V101.395C30 100.072 31.0806 99 32.4117 99H51.5675Z" fill="#FFFFFE"/>
<path fill-rule="evenodd" clip-rule="evenodd" d="M58.4256 140H32.5759V137.885H58.4256C59.1873 137.885 59.8071 137.289 59.8071 136.555V107.844L51.7899 100.115H32.5759C31.8127 100.115 31.1929 100.711 31.1929 101.445V112.696H29V101.445C29 99.545 30.6037 98 32.5759 98H52.6978L62 106.968V136.555C62 138.455 60.3963 140 58.4256 140Z" fill="#3A3A39"/>
<path fill-rule="evenodd" clip-rule="evenodd" d="M56.5675 97L65 105.373V134.604C65 135.927 63.9194 137 62.5868 137H37.4117C36.0792 137 35 135.927 35 134.604V99.3948C35 98.0716 36.0792 97 37.4117 97H56.5675Z" fill="#CDCECA"/>
<path fill-rule="evenodd" clip-rule="evenodd" d="M56 106V97L65 106H56Z" fill="#F3B240"/>
<path fill-rule="evenodd" clip-rule="evenodd" d="M65 107H57.0111C55.9021 107 55 106.098 55 104.989V97H57.2479V104.752H65V107Z" fill="#3A3A39"/>
<path fill-rule="evenodd" clip-rule="evenodd" d="M40 111H62V109H40V111Z" fill="#3A3A39"/>
<path fill-rule="evenodd" clip-rule="evenodd" d="M40 116H62V114H40V116Z" fill="#3A3A39"/>
<path fill-rule="evenodd" clip-rule="evenodd" d="M40 120H62V118H40V120Z" fill="#3A3A39"/>
<path fill-rule="evenodd" clip-rule="evenodd" d="M40 125H62V123H40V125Z" fill="#3A3A39"/>
<path fill-rule="evenodd" clip-rule="evenodd" d="M63.4269 138H62.2866V135.886H63.4269C64.1871 135.886 64.807 135.288 64.807 134.555V105.843L56.7909 98.1144H37.5731C36.8114 98.1144 36.193 98.7121 36.193 99.4451V116.293H34V99.4451C34 97.5464 35.6023 96 37.5731 96H57.6988L67 104.968V134.555C67 136.454 65.3962 138 63.4269 138Z" fill="#3A3A39"/>
<path fill-rule="evenodd" clip-rule="evenodd" d="M61.5665 100L70 108.373V137.605C70 138.927 68.9195 140 67.587 140H42.413C41.0805 140 40 138.927 40 137.605V102.396C40 101.073 41.0805 100 42.413 100H61.5665Z" fill="#FFFFFE"/>
<path fill-rule="evenodd" clip-rule="evenodd" d="M61 109V100L70 109H61Z" fill="#FBF6EE"/>
<path fill-rule="evenodd" clip-rule="evenodd" d="M70 110H62.0111C60.9021 110 60 109.096 60 107.988V100H62.2479V107.752H70V110Z" fill="#3A3A39"/>
<path fill-rule="evenodd" clip-rule="evenodd" d="M44 114H66V112H44V114Z" fill="#3A3A39"/>
<path fill-rule="evenodd" clip-rule="evenodd" d="M44 119H66V117H44V119Z" fill="#3A3A39"/>
<path fill-rule="evenodd" clip-rule="evenodd" d="M44 124H66V122H44V124Z" fill="#3A3A39"/>
<path fill-rule="evenodd" clip-rule="evenodd" d="M44 129H66V127H44V129Z" fill="#3A3A39"/>
<path fill-rule="evenodd" clip-rule="evenodd" d="M68.4267 141H64.0084V138.886H68.4267C69.187 138.886 69.8069 138.288 69.8069 137.553V108.845L61.7905 101.114H42.5733C41.813 101.114 41.1931 101.712 41.1931 102.445V115.648H39V102.445C39 100.546 40.6039 99 42.5733 99H62.6984L72 107.969V137.553C72 139.454 70.3961 141 68.4267 141Z" fill="#3A3A39"/>
<path fill-rule="evenodd" clip-rule="evenodd" d="M63 143H22.7478C21.7831 143 21 142.222 21 141.264V116.45C21 115.648 21.654 115 22.4598 115H29.3401C29.8409 115 30.3076 115.256 30.5743 115.678L32.3505 118.48H57.9497C58.8732 118.48 59.6222 119.223 59.6222 120.14V139.647C59.6222 141.212 60.7515 143 63 143Z" fill="#EDC034"/>
<path fill-rule="evenodd" clip-rule="evenodd" d="M59.6222 140.2V137H21V142.034C21 143.119 21.7831 144 22.7492 144H63C60.7515 144 59.6222 141.975 59.6222 140.2Z" fill="#F5DF91"/>
<path fill-rule="evenodd" clip-rule="evenodd" d="M64 144C61.0531 144 59.4645 141.736 59.4645 139.607V120.174C59.4645 119.841 59.1847 119.572 58.8426 119.572H32.0846L29.9509 116.288C29.877 116.175 29.748 116.105 29.6088 116.105H22.5787C22.3555 116.105 22.1743 116.281 22.1743 116.497V142.8H20V116.497C20 115.12 21.1567 114 22.5787 114H29.6088C30.4988 114 31.3164 114.435 31.7918 115.165L33.2848 117.467H58.8426C60.3835 117.467 61.6387 118.68 61.6387 120.174V139.607C61.6387 140.526 62.2664 141.895 64 141.895V144Z" fill="#3A3A39"/>
<path fill-rule="evenodd" clip-rule="evenodd" d="M10 144H243V142H10V144Z" fill="#3A3A39"/>
<path fill-rule="evenodd" clip-rule="evenodd" d="M4 144H8V142H4V144Z" fill="#3A3A39"/>
<path fill-rule="evenodd" clip-rule="evenodd" d="M246 144H255V142H246V144Z" fill="#3A3A39"/>
</g>
<defs>
<filter id="filter0_d" x="0" y="0" width="259" height="152" filterUnits="userSpaceOnUse" color-interpolation-filters="sRGB">
<feFlood flood-opacity="0" result="BackgroundImageFix"/>
<feColorMatrix in="SourceAlpha" type="matrix" values="0 0 0 0 0 0 0 0 0 0 0 0 0 0 0 0 0 0 127 0"/>
<feOffset dy="4"/>
<feGaussianBlur stdDeviation="2"/>
<feColorMatrix type="matrix" values="0 0 0 0 0 0 0 0 0 0 0 0 0 0 0 0 0 0 0.25 0"/>
<feBlend mode="normal" in2="BackgroundImageFix" result="effect1_dropShadow"/>
<feBlend mode="normal" in="SourceGraphic" in2="effect1_dropShadow" result="shape"/>
</filter>
</defs>
</svg>
