<?xml version="1.0" standalone="no"?>
<!DOCTYPE svg PUBLIC "-//W3C//DTD SVG 20010904//EN"
 "http://www.w3.org/TR/2001/REC-SVG-20010904/DTD/svg10.dtd">
<svg version="1.0" xmlns="http://www.w3.org/2000/svg"
 width="73.45" height="73.61" viewBox="0 0 84 84"
 preserveAspectRatio="xMidYMid meet">
<defs>
  <mask maskUnits="userSpaceOnUse" height="73.61" width="73.45" y="5.2" x="5.05" id="a">
   <path id="svg_1" fill="#fff" fill-rule="evenodd" d="m41.78,78.65a36.73,36.73 0 1 0 -36.73,-36.72a36.72,36.72 0 0 0 36.73,36.72z"/>
  </mask>
 </defs>
 <title>The Coding Space Logo</title>
 <g>
  <title>background</title>
  <rect fill="none" id="canvas_background" height="86.5" width="86.16" y="-1" x="-1"/>
 </g>
 <g>
  <title>Layer 1</title>
  <path id="svg_2" fill="#264548" fill-rule="evenodd" d="m42.084898,22.563265a7.14,7.14 0 0 1 -1.15,-0.06a5.32,5.32 0 0 0 1.27,0.13a4.71,4.71 0 0 0 1.25,-0.17a7.36,7.36 0 0 1 -1.37,0.1zm-0.06,-17.2a36.74,36.74 0 0 0 -24,64.56a36.65,36.65 0 0 1 -3.51,-3.54c6.45,-4.55 16.36,-7.46 27.48,-7.46s21,2.91 27.47,7.46a36.65,36.65 0 0 1 -3.51,3.54a36.73,36.73 0 0 0 -24,-64.56l0.07,0zm2.93,38.37l-0.24,0.19a10.18,10.18 0 0 1 -1.24,0.76l-0.76,6.74l-1.3,0l-0.76,-6.73a10.89,10.89 0 0 1 -1.24,-0.77l-0.24,-0.18q-0.36,-0.27 -0.72,-0.6a10.55,10.55 0 0 1 -3.21,-5.98a14.86,14.86 0 0 1 -0.24,-2.69a18.09,18.09 0 0 1 5.07,-12.23l0,0a6,6 0 0 0 0.84,0.26l0,0a5.32,5.32 0 0 0 1.27,0.13a4.71,4.71 0 0 0 1.25,-0.17c0.47,-0.09 0.62,-0.2 0.64,-0.23l0,0a18.13,18.13 0 0 1 5.17,12.24a14.64,14.64 0 0 1 -0.27,2.69a10.6,10.6 0 0 1 -3.21,6a8.11,8.11 0 0 1 -0.74,0.57l-0.07,0z"/>
  <g id="svg_3" mask="url(#a)">
   <path id="svg_4" fill="#fbf6ee" fill-rule="evenodd" d="m65.984898,69.923265a36.26,36.26 0 0 1 -47.93,0a36.75,36.75 0 0 0 47.93,0z"/>
  </g>
  <path id="svg_5" fill="#9fe2dd" fill-rule="evenodd" d="m42.024898,0.163265a42.15,42.15 0 0 0 -31.48,69.75a41.58,41.58 0 0 0 63,0a42.15,42.15 0 0 0 -31.52,-69.75zm0,78.81a36.15,36.15 0 0 1 -24,-9a36.61,36.61 0 1 1 60.46,-27.73a36.86,36.86 0 0 1 -12.5,27.68a36.14,36.14 0 0 1 -23.96,9.05z"/>
  <path id="svg_6" fill="#fbf6ee" fill-rule="evenodd" d="m69.494898,66.383265a36.66,36.66 0 0 1 -51.44,3.54a36.65,36.65 0 0 1 -3.51,-3.54c6.45,-4.55 16.36,-7.46 27.48,-7.46s21.02,2.91 27.47,7.46z"/>
  <path id="svg_7" fill="#264548" fill-rule="evenodd" d="m44.814898,30.483265a2.72,2.72 0 0 1 -2,2.63a2.82,2.82 0 0 1 -0.71,0.09a2.71,2.71 0 0 1 -2.72,-2.72a2.72,2.72 0 0 1 5.44,0l-0.01,0z"/>
  <path id="svg_8" fill="#edc034" fill-rule="evenodd" d="m45.454898,47.483265a15.94,15.94 0 0 1 -3.35,9.4a16,16 0 0 1 -3.36,-9.4a18.66,18.66 0 0 1 0.43,-3.74l0.24,0.18a10.89,10.89 0 0 0 1.24,0.77l0.77,6.73l1.36,0l0.76,-6.74a10.18,10.18 0 0 0 1.24,-0.76l0.24,-0.19a18.84,18.84 0 0 1 0.43,3.75z"/>
  <path id="svg_9" fill="#9fe2dd" fill-rule="evenodd" d="m38.454898,43.163265c-0.77,3.61 -2.38,8.43 -2.38,8.43l-0.68,0s-3.32,-10 -2.68,-12a4.36,4.36 0 0 1 2.53,-2.43a10.55,10.55 0 0 0 3.21,6z"/>
  <path id="svg_10" fill="#9fe2dd" fill-rule="evenodd" d="m48.814898,51.573265l-0.67,0s-1.62,-4.85 -2.38,-8.41a10.54,10.54 0 0 0 3.21,-6a4.32,4.32 0 0 1 2.54,2.46c0.65,1.98 -2.7,11.95 -2.7,11.95z"/>
  <polygon id="svg_11" fill="#9fe2dd" fill-rule="evenodd" points="44.1348991394043,39.40326876938343 44.044898986816406,40.15326876938343 43.544898986816406,44.68326373398304 42.78489685058594,51.42326541244984 41.41489791870117,51.42326541244984 40.65489959716797,44.69326587021351 40.144901275634766,40.183267548680305 40.054901123046875,39.40326876938343 40.69490051269531,38.62326617538929 42.09489822387695,36.913267090916634 43.51490020751953,38.653264954686165 44.1348991394043,39.40326876938343 "/>
  <path id="svg_12" fill="#fbf6ee" fill-rule="evenodd" d="m44.104898,22.233265l0,0s-0.17,0.14 -0.64,0.23a7.36,7.36 0 0 1 -1.37,0.1a7.14,7.14 0 0 1 -1.15,-0.06l0,0a6,6 0 0 1 -0.84,-0.26l0,0a18.09,18.09 0 0 0 -5.07,12.23a14.86,14.86 0 0 0 0.21,2.69a10.55,10.55 0 0 0 3.23,6q0.36,0.33 0.72,0.6l0.24,0.18a10.89,10.89 0 0 0 1.24,0.77l-0.53,-4.55l-0.09,-0.78l0.64,-0.78l1.4,-1.71l1.43,1.74l0.61,0.75l-0.09,0.78l-0.5,4.53a10.18,10.18 0 0 0 1.24,-0.76l0.24,-0.19a8.11,8.11 0 0 0 0.74,-0.62a10.6,10.6 0 0 0 3.21,-6a14.64,14.64 0 0 0 0.27,-2.65a18.13,18.13 0 0 0 -5.14,-12.24zm-1.3,10.93a2.82,2.82 0 0 1 -0.71,0.09a2.69,2.69 0 0 1 -0.7,-0.09a2.72,2.72 0 1 1 1.41,0z"/>
  <path id="svg_13" fill="#264548" fill-rule="evenodd" d="m44.814898,30.483265a2.72,2.72 0 0 1 -2,2.63a2.82,2.82 0 0 1 -0.71,0.09a2.71,2.71 0 0 1 -2.72,-2.72a2.72,2.72 0 0 1 5.44,0l-0.01,0z"/>
  <path id="svg_14" fill="#edc034" fill-rule="evenodd" d="m44.104898,22.233265l0,0s-0.17,0.14 -0.65,0.23a7.87,7.87 0 0 1 -1.36,0.11a8.26,8.26 0 0 1 -1.15,-0.07l0,0a6,6 0 0 1 -0.84,-0.26l0,0a13.7,13.7 0 0 1 2,-2.61a14.23,14.23 0 0 1 2,2.6z"/>
  <path id="svg_15" fill="#edc034" fill-rule="evenodd" d="m44.104898,22.233265l0,0s-0.17,0.14 -0.65,0.23a7.87,7.87 0 0 1 -1.36,0.11a8.26,8.26 0 0 1 -1.15,-0.07l0,0a6,6 0 0 1 -0.84,-0.26l0,0a13.7,13.7 0 0 1 2,-2.61a14.23,14.23 0 0 1 2,2.6z"/>
 </g>
</svg>
