<svg xmlns="http://www.w3.org/2000/svg" xmlns:xlink="http://www.w3.org/1999/xlink" viewBox="0 0 579.59 84.16" title="The Coding Space Logo" alt="The Coding Space Logo"><defs><mask id="a" x="5.05" y="5.2" width="73.45" height="73.61" maskUnits="userSpaceOnUse"><path d="M41.78,78.65A36.73,36.73,0,1,0,5.05,41.93,36.72,36.72,0,0,0,41.78,78.65Z" style="fill:#fff;fill-rule:evenodd"/></mask></defs><title>The Coding Space Logo</title><path d="M41.84,22.4a7.14,7.14,0,0,1-1.15-.06,5.32,5.32,0,0,0,1.27.13,4.71,4.71,0,0,0,1.25-.17A7.36,7.36,0,0,1,41.84,22.4ZM41.78,5.2a36.74,36.74,0,0,0-24,64.56,36.65,36.65,0,0,1-3.51-3.54c6.45-4.55,16.36-7.46,27.48-7.46s21,2.91,27.47,7.46a36.65,36.65,0,0,1-3.51,3.54,36.73,36.73,0,0,0-24-64.56Zm3,38.37-.24.19a10.18,10.18,0,0,1-1.24.76l-.76,6.74H41.17l-.76-6.73a10.89,10.89,0,0,1-1.24-.77l-.24-.18q-.36-.27-.72-.6A10.55,10.55,0,0,1,35,37a14.86,14.86,0,0,1-.24-2.69,18.09,18.09,0,0,1,5.07-12.23h0a6,6,0,0,0,.84.26h0a5.32,5.32,0,0,0,1.27.13,4.71,4.71,0,0,0,1.25-.17c.47-.09.62-.2.64-.23h0A18.13,18.13,0,0,1,49,34.31,14.64,14.64,0,0,1,48.73,37a10.6,10.6,0,0,1-3.21,6A8.11,8.11,0,0,1,44.78,43.57Z" style="fill:#274548;fill-rule:evenodd"/><g style="mask:url(#a)"><path d="M65.74,69.76a36.26,36.26,0,0,1-47.93,0,36.75,36.75,0,0,0,47.93,0Z" style="fill:#fbf6ee;fill-rule:evenodd"/></g><path d="M41.78,0A42.15,42.15,0,0,0,10.3,69.75a41.58,41.58,0,0,0,63,0A42.15,42.15,0,0,0,41.78,0Zm0,78.81a36.15,36.15,0,0,1-24-9A36.61,36.61,0,1,1,78.24,42.08a36.86,36.86,0,0,1-12.5,27.68A36.14,36.14,0,0,1,41.78,78.81Z" style="fill:#9fe2dd;fill-rule:evenodd"/><path d="M69.25,66.22a36.66,36.66,0,0,1-51.44,3.54,36.65,36.65,0,0,1-3.51-3.54c6.45-4.55,16.36-7.46,27.48-7.46S62.8,61.67,69.25,66.22Z" style="fill:#fbf6ee;fill-rule:evenodd"/><path d="M44.57,30.32a2.72,2.72,0,0,1-2,2.63,2.82,2.82,0,0,1-.71.09,2.71,2.71,0,0,1-2.72-2.72,2.72,2.72,0,0,1,5.44,0Z" style="fill:#274548;fill-rule:evenodd"/><path d="M45.21,47.32a15.94,15.94,0,0,1-3.35,9.4,16,16,0,0,1-3.36-9.4,18.66,18.66,0,0,1,.43-3.74l.24.18a10.89,10.89,0,0,0,1.24.77l.77,6.73h1.36l.76-6.74a10.18,10.18,0,0,0,1.24-.76l.24-.19A18.84,18.84,0,0,1,45.21,47.32Z" style="fill:#edc034;fill-rule:evenodd"/><path d="M38.21,43c-.77,3.61-2.38,8.43-2.38,8.43h-.68s-3.32-10-2.68-12A4.36,4.36,0,0,1,35,37,10.55,10.55,0,0,0,38.21,43Z" style="fill:#9fe2dd;fill-rule:evenodd"/><path d="M48.57,51.41H47.9S46.28,46.56,45.52,43a10.54,10.54,0,0,0,3.21-6,4.32,4.32,0,0,1,2.54,2.46C51.92,41.44,48.57,51.41,48.57,51.41Z" style="fill:#9fe2dd;fill-rule:evenodd"/><polygon points="43.89 39.24 43.8 39.99 43.3 44.52 42.54 51.26 41.17 51.26 40.41 44.53 39.9 40.02 39.81 39.24 40.45 38.46 41.85 36.75 43.27 38.49 43.89 39.24" style="fill:#9fe2dd;fill-rule:evenodd"/><path d="M43.86,22.07h0s-.17.14-.64.23a7.36,7.36,0,0,1-1.37.1,7.14,7.14,0,0,1-1.15-.06h0a6,6,0,0,1-.84-.26h0a18.09,18.09,0,0,0-5.07,12.23A14.86,14.86,0,0,0,35,37a10.55,10.55,0,0,0,3.23,6q.36.33.72.6l.24.18a10.89,10.89,0,0,0,1.24.77L39.9,40l-.09-.78.64-.78,1.4-1.71,1.43,1.74.61.75L43.8,40l-.5,4.53a10.18,10.18,0,0,0,1.24-.76l.24-.19a8.11,8.11,0,0,0,.74-.62,10.6,10.6,0,0,0,3.21-6A14.64,14.64,0,0,0,49,34.31,18.13,18.13,0,0,0,43.86,22.07ZM42.56,33a2.82,2.82,0,0,1-.71.09,2.69,2.69,0,0,1-.7-.09,2.72,2.72,0,1,1,1.41,0Z" style="fill:#fbf6ee;fill-rule:evenodd"/><path d="M44.57,30.32a2.72,2.72,0,0,1-2,2.63,2.82,2.82,0,0,1-.71.09,2.71,2.71,0,0,1-2.72-2.72,2.72,2.72,0,0,1,5.44,0Z" style="fill:#274548;fill-rule:evenodd"/><path d="M43.86,22.07h0s-.17.14-.65.23a7.87,7.87,0,0,1-1.36.11,8.26,8.26,0,0,1-1.15-.07h0a6,6,0,0,1-.84-.26h0a13.7,13.7,0,0,1,2-2.61A14.23,14.23,0,0,1,43.86,22.07Z" style="fill:#edc034;fill-rule:evenodd"/><path d="M43.86,22.07h0s-.17.14-.65.23a7.87,7.87,0,0,1-1.36.11,8.26,8.26,0,0,1-1.15-.07h0a6,6,0,0,1-.84-.26h0a13.7,13.7,0,0,1,2-2.61A14.23,14.23,0,0,1,43.86,22.07Z" style="fill:#edc034;fill-rule:evenodd"/><path d="M102.25,23.13v7.26h11.33V61.88h8.31V30.39h11.27V23.13Z" style="fill:#274548"/><path d="M155.53,33.12a13,13,0,0,0-9.87,4.36V23.13h-7.39V61.88h7.39V43a8.14,8.14,0,0,1,6.39-3.31c3.19,0,5.23,1.22,5.23,5.11V61.88h7.37V42C164.65,36.49,161.69,33.12,155.53,33.12Z" style="fill:#274548"/><path d="M198.76,48.58c0-9.18-5.69-15.46-14.06-15.46-8.54,0-14.52,6.57-14.52,14.7,0,9,6.44,14.76,15,14.76,4.35,0,8.77-1.33,11.56-3.89l-3.26-4.76A12,12,0,0,1,186,56.71c-4.76,0-7.61-3-8.08-6.5h20.86Zm-21-3.37A6.74,6.74,0,0,1,184.7,39a6.51,6.51,0,0,1,6.92,6.22Z" style="fill:#274548"/><path d="M237.93,55.26c-7,0-12.15-5.4-12.15-12.72s5.11-12.73,12.15-12.73a10.5,10.5,0,0,1,9.12,5.64L254.14,32a17.74,17.74,0,0,0-16.21-9.47c-11.62,0-20.63,8.13-20.63,20.05s9,20,20.63,20c8.54,0,13.42-4.7,16.21-9.53l-7.09-3.43A10.39,10.39,0,0,1,237.93,55.26Z" style="fill:#274548"/><path d="M285.7,42a13.61,13.61,0,0,0-8.42-8,16.51,16.51,0,0,0-5.36-.85,16.32,16.32,0,0,0-5.33.85c-6,2.05-9.49,7.57-9.49,13.85,0,8,5.58,14.76,14.82,14.76,6.89,0,11.73-3.7,13.78-8.88a15.88,15.88,0,0,0,1.09-5.88A15.71,15.71,0,0,0,285.7,42ZM271.92,56c-4.59,0-7.15-3.77-7.15-8.19s2.56-8.13,7.15-8.13,7.2,3.78,7.2,8.13S276.51,56,271.92,56Z" style="fill:#274548"/><path d="M311.55,23.13V37.42a10.84,10.84,0,0,0-8.66-4.3c-7.15,0-12.44,5.58-12.44,14.76,0,9.36,5.35,14.7,12.44,14.7a10.9,10.9,0,0,0,8.66-4.3v3.6H319V23.13Zm0,29.69a8,8,0,0,1-6.4,3.19c-4.18,0-7.09-3.31-7.09-8.13s2.91-8.19,7.09-8.19a8,8,0,0,1,6.4,3.2Z" style="fill:#274548"/><path d="M330,22a4.4,4.4,0,0,0-4.42,4.36,4.42,4.42,0,1,0,8.83,0A4.36,4.36,0,0,0,330,22Zm-3.66,11.8V61.88h7.37V33.82Z" style="fill:#274548"/><path d="M358.21,33.12a12.89,12.89,0,0,0-9.83,4.36V33.82H341V61.88h7.37V43a8,8,0,0,1,6.4-3.31c3.13,0,5.17,1.33,5.17,5.23v17h7.38V42.07C367.33,36.61,364.37,33.12,358.21,33.12Z" style="fill:#274548"/><path d="M393.88,33.82v3.6a10.84,10.84,0,0,0-8.66-4.3c-7.09,0-12.37,5.12-12.37,14.3,0,9.35,5.34,14.29,12.37,14.29a10.94,10.94,0,0,0,8.66-4.41v2.84c0,5.52-4.18,7.09-7.73,7.09s-6.51-1-8.77-3.49l-3.31,5.35c3.54,3.08,7.26,4.18,12.08,4.18,6.92,0,15.17-2.61,15.17-13.3V33.82Zm0,18.13a8.17,8.17,0,0,1-6.33,3.2c-4.18,0-7.09-2.91-7.09-7.73s2.91-7.73,7.09-7.73a8,8,0,0,1,6.33,3.2Z" style="fill:#274548"/><path d="M438.45,37.94c-4.18-1-7.73-1.8-7.73-4.29,0-2.33,2-3.9,5.52-3.9A16.67,16.67,0,0,1,447.51,34l4.59-6c-3.83-3.54-9-5.4-15.1-5.4-9.13,0-14.7,5.34-14.7,11.79,0,8.84,8.13,10.58,14.46,12,4.24,1.05,7.85,1.86,7.85,4.71,0,2.2-2.21,4.3-6.74,4.3a17,17,0,0,1-12.32-5.23l-4.47,6.27c3.6,3.66,8.94,6.16,16.38,6.16,10.46,0,15.51-5.34,15.51-12.43C453,41.37,444.84,39.46,438.45,37.94Z" style="fill:#274548"/><path d="M474.42,33.12a10.84,10.84,0,0,0-8.66,4.24V33.82h-7.38V72.58h7.38V58.28a10.71,10.71,0,0,0,8.66,4.3c7.2,0,12.43-5.4,12.43-14.76S481.62,33.12,474.42,33.12ZM472.09,56a8.45,8.45,0,0,1-6.33-3.19V42.89a8.24,8.24,0,0,1,6.33-3.2c4.24,0,7.09,3.31,7.09,8.13S476.33,56,472.09,56Z" style="fill:#274548"/><path d="M504.22,33.12A18.43,18.43,0,0,0,492,37.54l2.79,4.94a11.82,11.82,0,0,1,8.2-3.32c3.71,0,6.15,1.86,6.15,4.71v3.78c-1.85-2.21-5.17-3.43-8.88-3.43-4.48,0-9.77,2.5-9.77,9.06,0,6.28,5.29,9.3,9.77,9.3,3.66,0,7-1.33,8.88-3.6v2.9h7.38V43.76C516.48,35.68,510.61,33.12,504.22,33.12Zm4.88,22a7.39,7.39,0,0,1-5.92,2.44c-2.91,0-5.29-1.51-5.29-4.13s2.38-4.24,5.29-4.24c2.38,0,4.7.81,5.92,2.44Z" style="fill:#274548"/><path d="M537.23,56c-4.48,0-7.61-3.31-7.61-8.19s3.13-8.13,7.61-8.13a6.77,6.77,0,0,1,5.92,3L548,38.18c-1.86-2.56-5.35-5.06-11.1-5.06-8.66,0-14.87,6.1-14.87,14.7s6.21,14.76,14.87,14.76c5.75,0,9.24-2.5,11.1-5.11L543.15,53A7,7,0,0,1,537.23,56Z" style="fill:#274548"/><path d="M579.59,48.58c0-9.18-5.7-15.46-14.06-15.46C557,33.12,551,39.69,551,47.82c0,9,6.45,14.76,15,14.76,4.36,0,8.78-1.33,11.56-3.89l-3.25-4.76a12,12,0,0,1-7.5,2.78c-4.76,0-7.61-3-8.07-6.5h20.86Zm-21-3.37A6.75,6.75,0,0,1,565.53,39a6.5,6.5,0,0,1,6.91,6.22Z" style="fill:#274548"/></svg>
