<svg width="326" height="145" viewBox="0 0 326 145" fill="none" xmlns="http://www.w3.org/2000/svg">
<path fill-rule="evenodd" clip-rule="evenodd" d="M35 145H271V143H35V145Z" fill="#3A3A39"/>
<path fill-rule="evenodd" clip-rule="evenodd" d="M28 145H32V143H28V145Z" fill="#3A3A39"/>
<path fill-rule="evenodd" clip-rule="evenodd" d="M274 145H283V143H274V145Z" fill="#3A3A39"/>
<path fill-rule="evenodd" clip-rule="evenodd" d="M36.9811 16.5478C36.9811 20.7171 40.3837 24.0969 44.5812 24.0969H97.8943C101.327 24.0969 104.109 26.8617 104.109 30.2702C104.109 33.68 101.327 36.4448 97.8943 36.4448H97.5387C90.6096 36.4448 84.9937 42.023 84.9937 48.9043H9.25607C4.14421 48.9043 0 53.0207 0 58.0983C0 63.1773 4.14421 67.2938 9.25607 67.2938H62.3878C66.3246 67.2938 69.5156 70.4633 69.5156 74.3738C69.5156 78.2843 66.3246 81.4539 62.3878 81.4539H38.0366C33.7656 81.4539 30.3025 84.8938 30.3025 89.1375C30.3025 93.3626 33.7383 96.7954 37.9919 96.8197L54.514 96.9155C62.814 96.9642 69.5156 103.661 69.5156 111.904V137H236.391V105.098H292.1C296.478 105.098 300.026 101.574 300.026 97.2259C300.026 92.8506 296.436 89.3148 292.031 89.3535L273.786 89.5108C270.255 89.5408 267.376 86.706 267.376 83.1988C267.376 79.7218 270.209 76.8997 273.711 76.8883L316.944 76.7539C321.951 76.7381 326 72.7032 326 67.7314C326 62.7482 321.934 58.709 316.917 58.709H272.163C267.873 58.709 264.397 55.2548 264.397 50.9954C264.397 46.7345 267.873 43.2817 272.163 43.2817C277.069 43.2817 281.046 39.3312 281.046 34.4567V24.0969H306.08C310.277 24.0969 313.68 20.7171 313.68 16.5478C313.68 12.3798 310.277 9 306.08 9H44.5812C40.3837 9 36.9811 12.3798 36.9811 16.5478" fill="#EFF1F1"/>
<path fill-rule="evenodd" clip-rule="evenodd" d="M208 137H210V102H208V137Z" fill="#3A3A39"/>
<path fill-rule="evenodd" clip-rule="evenodd" d="M218 88H257V79H218V88Z" fill="#E5E6E3"/>
<path fill-rule="evenodd" clip-rule="evenodd" d="M218 102H257V93H218V102Z" fill="#E5E6E3"/>
<path fill-rule="evenodd" clip-rule="evenodd" d="M169.831 26H163.169C162.524 26 162 25.552 162 25C162 24.448 162.524 24 163.169 24H169.831C170.476 24 171 24.448 171 25C171 25.552 170.476 26 169.831 26" fill="#3A3A39"/>
<path fill-rule="evenodd" clip-rule="evenodd" d="M165 29C164.448 29 164 28.4764 164 27.8312V21.1688C164 20.5236 164.448 20 165 20C165.552 20 166 20.5236 166 21.1688V27.8312C166 28.4764 165.552 29 165 29" fill="#3A3A39"/>
<path fill-rule="evenodd" clip-rule="evenodd" d="M54.831 74H48.169C47.5237 74 47 73.552 47 73C47 72.448 47.5237 72 48.169 72H54.831C55.4778 72 56 72.448 56 73C56 73.552 55.4778 74 54.831 74" fill="#3A3A39"/>
<path fill-rule="evenodd" clip-rule="evenodd" d="M52 78C51.448 78 51 77.4764 51 76.8312V70.1688C51 69.5236 51.448 69 52 69C52.552 69 53 69.5236 53 70.1688V76.8312C53 77.4764 52.552 78 52 78" fill="#3A3A39"/>
<path fill-rule="evenodd" clip-rule="evenodd" d="M280.995 50C280.741 50 280.487 49.9032 280.292 49.7081C279.903 49.3194 279.903 48.6906 280.292 48.3019L284.301 44.2915C284.69 43.9028 285.32 43.9028 285.708 44.2915C286.097 44.6802 286.097 45.3104 285.708 45.6991L281.699 49.7081C281.504 49.9032 281.249 50 280.995 50" fill="#3A3A39"/>
<path fill-rule="evenodd" clip-rule="evenodd" d="M285.004 50C284.749 50 284.496 49.9032 284.301 49.7081L280.292 45.6991C279.903 45.3104 279.903 44.6802 280.292 44.2915C280.68 43.9028 281.31 43.9028 281.699 44.2915L285.708 48.3019C286.097 48.6906 286.097 49.3194 285.708 49.7081C285.513 49.9032 285.259 50 285.004 50" fill="#3A3A39"/>
<path fill-rule="evenodd" clip-rule="evenodd" d="M116.995 6C116.74 6 116.485 5.90183 116.292 5.70814C115.903 5.31944 115.903 4.68929 116.292 4.30059L120.302 0.291526C120.691 -0.0971754 121.32 -0.0971754 121.708 0.291526C122.097 0.680228 122.097 1.30905 121.708 1.69775L117.698 5.70814C117.504 5.90183 117.25 6 116.995 6" fill="#3A3A39"/>
<path fill-rule="evenodd" clip-rule="evenodd" d="M121.005 6C120.75 6 120.496 5.90183 120.302 5.70814L116.292 1.69775C115.903 1.30905 115.903 0.680228 116.292 0.291526C116.68 -0.0971754 117.309 -0.0971754 117.698 0.291526L121.708 4.30059C122.097 4.68929 122.097 5.31944 121.708 5.70814C121.515 5.90183 121.26 6 121.005 6" fill="#3A3A39"/>
<path fill-rule="evenodd" clip-rule="evenodd" d="M122 26H147V24H122V26Z" fill="#3A3A39"/>
<path fill-rule="evenodd" clip-rule="evenodd" d="M74 35H139V33H74V35Z" fill="#3A3A39"/>
<path fill-rule="evenodd" clip-rule="evenodd" d="M287 48H315V46H287V48Z" fill="#3A3A39"/>
<path fill-rule="evenodd" clip-rule="evenodd" d="M17 74H45V72H17V74Z" fill="#3A3A39"/>
<path fill-rule="evenodd" clip-rule="evenodd" d="M150 26H155V24H150V26Z" fill="#3A3A39"/>
<path fill-rule="evenodd" clip-rule="evenodd" d="M236 16H261V14H236V16Z" fill="#3A3A39"/>
<path fill-rule="evenodd" clip-rule="evenodd" d="M263 16H268V14H263V16Z" fill="#3A3A39"/>
<path fill-rule="evenodd" clip-rule="evenodd" d="M61 56.5C61 57.8801 59.8804 59 58.4993 59C57.1196 59 56 57.8801 56 56.5C56 55.1186 57.1196 54 58.4993 54C59.8804 54 61 55.1186 61 56.5" fill="#3A3A39"/>
<path fill-rule="evenodd" clip-rule="evenodd" d="M186 7.5C186 8.8801 184.88 10 183.499 10C182.12 10 181 8.8801 181 7.5C181 6.11856 182.12 5 183.499 5C184.88 5 186 6.11856 186 7.5" fill="#3A3A39"/>
<path fill-rule="evenodd" clip-rule="evenodd" d="M166 47.5008C166 48.3281 165.328 49 164.499 49C163.672 49 163 48.3281 163 47.5008C163 46.6719 163.672 46 164.499 46C165.328 46 166 46.6719 166 47.5008" fill="#3A3A39"/>
<path fill-rule="evenodd" clip-rule="evenodd" d="M285 111.499C285 112.328 284.328 113 283.499 113C282.672 113 282 112.328 282 111.499C282 110.672 282.672 110 283.499 110C284.328 110 285 110.672 285 111.499" fill="#3A3A39"/>
<path fill-rule="evenodd" clip-rule="evenodd" d="M197 25.4994C197 26.3286 196.329 27 195.501 27C194.671 27 194 26.3286 194 25.4994C194 24.6714 194.671 24 195.501 24C196.329 24 197 24.6714 197 25.4994" fill="#3A3A39"/>
<path fill-rule="evenodd" clip-rule="evenodd" d="M90 15.4994C90 16.3286 89.3286 17 88.4994 17C87.6714 17 87 16.3286 87 15.4994C87 14.6714 87.6714 14 88.4994 14C89.3286 14 90 14.6714 90 15.4994" fill="#3A3A39"/>
<path fill-rule="evenodd" clip-rule="evenodd" d="M294 66.4994C294 67.3286 293.329 68 292.499 68C291.671 68 291 67.3286 291 66.4994C291 65.6714 291.671 65 292.499 65C293.329 65 294 65.6714 294 66.4994" fill="#3A3A39"/>
<path fill-rule="evenodd" clip-rule="evenodd" d="M52 89.268H52.46V89H52V89.268Z" fill="#2A3941"/>
<path fill-rule="evenodd" clip-rule="evenodd" d="M107 136.821H110V136H107V136.821Z" fill="#2A3941"/>
<path fill-rule="evenodd" clip-rule="evenodd" d="M119 71H69L94 53L119 71" fill="#F3F4F1"/>
<path fill-rule="evenodd" clip-rule="evenodd" d="M207.555 138H104.445C103.65 138 103 137.36 103 136.577V64.4225C103 63.6401 103.65 63 104.445 63H207.555C208.35 63 209 63.6401 209 64.4225V136.577C209 137.36 208.35 138 207.555 138" fill="#515251"/>
<path fill-rule="evenodd" clip-rule="evenodd" d="M104.525 64.1577C104.329 64.1577 104.164 64.3231 104.164 64.5173V137.483C104.164 137.678 104.329 137.842 104.525 137.842H207.475C207.67 137.842 207.836 137.678 207.836 137.483V64.5173C207.836 64.3231 207.67 64.1577 207.475 64.1577H104.525ZM207.475 140H104.525C103.133 140 102 138.871 102 137.483V64.5173C102 63.1292 103.133 62 104.525 62H207.475C208.866 62 210 63.1292 210 64.5173V137.483C210 138.871 208.866 140 207.475 140V140Z" fill="#3A3A39"/>
<path fill-rule="evenodd" clip-rule="evenodd" d="M108 130H203V69H108V130Z" fill="#FFFFFE"/>
<path fill-rule="evenodd" clip-rule="evenodd" d="M207.641 143H103.764C101.27 143 99.1447 141.149 98.7399 138.626L98 134H146.145L147.988 136.711H161.291L163.281 134H214L213.356 138.023C212.897 140.893 210.477 143 207.641 143" fill="#FFFFFE"/>
<path fill-rule="evenodd" clip-rule="evenodd" d="M99.5486 135.185L100.079 138.446C100.396 140.398 102.051 141.815 104.012 141.815H207.396C209.701 141.815 211.644 140.149 212.015 137.856L212.45 135.185H163.787L161.805 137.839H147.459L145.625 135.185H99.5486ZM207.396 144H104.012C100.984 144 98.431 141.814 97.9415 138.799L97 133H146.757L148.589 135.654H160.725L162.707 133H215L214.154 138.209C213.609 141.565 210.766 144 207.396 144V144Z" fill="#3A3A39"/>
<path fill-rule="evenodd" clip-rule="evenodd" d="M159.49 126H152.51C152.228 126 152 125.786 152 125.523V77.7822L152.047 77.5821L155.537 72.2776C155.719 71.9075 156.281 71.9075 156.463 72.2776L159.954 77.5821L160 77.7822V125.523C160 125.786 159.772 126 159.49 126" fill="#FFFFFE"/>
<path fill-rule="evenodd" clip-rule="evenodd" d="M152 121H160V79H152V121Z" fill="#9FE2DD"/>
<path fill-rule="evenodd" clip-rule="evenodd" d="M153.227 124.872H158.773V78.2631L155.997 73.8584L153.227 78.2617V124.872ZM161 127H151V77.6702L154.778 71.6795C154.95 71.3064 155.452 71 156 71C156.548 71 157.05 71.3064 157.278 71.7816L161 77.6702V127V127Z" fill="#3A3A39"/>
<path fill-rule="evenodd" clip-rule="evenodd" d="M163 112H175V110H163V112Z" fill="#3A3A39"/>
<path fill-rule="evenodd" clip-rule="evenodd" d="M152 80H160V78H152V80Z" fill="#3A3A39"/>
<path fill-rule="evenodd" clip-rule="evenodd" d="M152 122H161V120H152V122Z" fill="#3A3A39"/>
<path fill-rule="evenodd" clip-rule="evenodd" d="M161.511 122L161 119.927C170.352 117.58 176.882 109.136 176.882 99.3931C176.882 89.9964 170.637 81.6314 161.695 79.0535L162.276 77C172.123 79.8373 179 89.0459 179 99.3931C179 110.121 171.808 119.416 161.511 122" fill="#3A3A39"/>
<path fill-rule="evenodd" clip-rule="evenodd" d="M150.458 122C140.178 119.325 133 110.06 133 99.4708C133 88.9783 140.098 79.7378 150.262 77L150.823 79.0612C141.593 81.5483 135.146 89.9412 135.146 99.4708C135.146 109.089 141.666 117.504 151 119.933L150.458 122" fill="#3A3A39"/>
<path fill-rule="evenodd" clip-rule="evenodd" d="M164.936 121L163 119.861C166.687 114.311 168.717 107.051 168.717 99.4212C168.717 91.854 166.722 84.6491 163.102 79.1301L165.044 78C168.885 83.8541 171 91.4615 171 99.4212C171 107.45 168.847 115.111 164.936 121" fill="#3A3A39"/>
<path fill-rule="evenodd" clip-rule="evenodd" d="M148.067 121C144.154 115.114 142 107.451 142 99.4212C142 91.4687 144.116 83.8599 147.959 78L149.9 79.1301C146.278 84.6548 144.282 91.8611 144.282 99.4212C144.282 107.053 146.313 114.312 150 119.861L148.067 121" fill="#3A3A39"/>
<path fill-rule="evenodd" clip-rule="evenodd" d="M162 101H178V99H162V101Z" fill="#3A3A39"/>
<path fill-rule="evenodd" clip-rule="evenodd" d="M163 90H176V88H163V90Z" fill="#3A3A39"/>
<path fill-rule="evenodd" clip-rule="evenodd" d="M134 101H150V99H134V101Z" fill="#3A3A39"/>
<path fill-rule="evenodd" clip-rule="evenodd" d="M136 90H149V88H136V90Z" fill="#3A3A39"/>
<path fill-rule="evenodd" clip-rule="evenodd" d="M137 112H149V110H137V112Z" fill="#3A3A39"/>
</svg>
